<?xml version="1.0" encoding="utf-8" standalone="no"?>
<!DOCTYPE svg PUBLIC "-//W3C//DTD SVG 1.1//EN"
  "http://www.w3.org/Graphics/SVG/1.1/DTD/svg11.dtd">
<!-- Created with matplotlib (https://matplotlib.org/) -->
<svg height="360pt" version="1.1" viewBox="0 0 720 360" width="720pt" xmlns="http://www.w3.org/2000/svg" xmlns:xlink="http://www.w3.org/1999/xlink">
 <defs>
  <style type="text/css">
*{stroke-linecap:butt;stroke-linejoin:round;}
  </style>
 </defs>
 <g id="figure_1">
  <g id="patch_1">
   <path d="M 0 360 
L 720 360 
L 720 0 
L 0 0 
z
" style="fill:#ffffff;"/>
  </g>
  <g id="axes_1">
   <g id="patch_2">
    <path d="M 43.04 273.389935 
L 236.4 273.389935 
L 236.4 10.8 
L 43.04 10.8 
z
" style="fill:#ffffff;"/>
   </g>
   <g id="matplotlib.axis_1">
    <g id="xtick_1">
     <g id="text_1">
      <!-- LacI4 -->
      <defs>
       <path d="M 7.328125 0 
L 7.328125 71.578125 
L 16.796875 71.578125 
L 16.796875 8.453125 
L 52.046875 8.453125 
L 52.046875 0 
z
" id="ArialMT-76"/>
       <path d="M 40.4375 6.390625 
Q 35.546875 2.25 31.03125 0.53125 
Q 26.515625 -1.171875 21.34375 -1.171875 
Q 12.796875 -1.171875 8.203125 3 
Q 3.609375 7.171875 3.609375 13.671875 
Q 3.609375 17.484375 5.34375 20.625 
Q 7.078125 23.78125 9.890625 25.6875 
Q 12.703125 27.59375 16.21875 28.5625 
Q 18.796875 29.25 24.03125 29.890625 
Q 34.671875 31.15625 39.703125 32.90625 
Q 39.75 34.71875 39.75 35.203125 
Q 39.75 40.578125 37.25 42.78125 
Q 33.890625 45.75 27.25 45.75 
Q 21.046875 45.75 18.09375 43.578125 
Q 15.140625 41.40625 13.71875 35.890625 
L 5.125 37.0625 
Q 6.296875 42.578125 8.984375 45.96875 
Q 11.671875 49.359375 16.75 51.1875 
Q 21.828125 53.03125 28.515625 53.03125 
Q 35.15625 53.03125 39.296875 51.46875 
Q 43.453125 49.90625 45.40625 47.53125 
Q 47.359375 45.171875 48.140625 41.546875 
Q 48.578125 39.3125 48.578125 33.453125 
L 48.578125 21.734375 
Q 48.578125 9.46875 49.140625 6.21875 
Q 49.703125 2.984375 51.375 0 
L 42.1875 0 
Q 40.828125 2.734375 40.4375 6.390625 
z
M 39.703125 26.03125 
Q 34.90625 24.078125 25.34375 22.703125 
Q 19.921875 21.921875 17.671875 20.9375 
Q 15.4375 19.96875 14.203125 18.09375 
Q 12.984375 16.21875 12.984375 13.921875 
Q 12.984375 10.40625 15.640625 8.0625 
Q 18.3125 5.71875 23.4375 5.71875 
Q 28.515625 5.71875 32.46875 7.9375 
Q 36.421875 10.15625 38.28125 14.015625 
Q 39.703125 17 39.703125 22.796875 
z
" id="ArialMT-97"/>
       <path d="M 40.4375 19 
L 49.078125 17.875 
Q 47.65625 8.9375 41.8125 3.875 
Q 35.984375 -1.171875 27.484375 -1.171875 
Q 16.84375 -1.171875 10.375 5.78125 
Q 3.90625 12.75 3.90625 25.734375 
Q 3.90625 34.125 6.6875 40.421875 
Q 9.46875 46.734375 15.15625 49.875 
Q 20.84375 53.03125 27.546875 53.03125 
Q 35.984375 53.03125 41.359375 48.75 
Q 46.734375 44.484375 48.25 36.625 
L 39.703125 35.296875 
Q 38.484375 40.53125 35.375 43.15625 
Q 32.28125 45.796875 27.875 45.796875 
Q 21.234375 45.796875 17.078125 41.03125 
Q 12.9375 36.28125 12.9375 25.984375 
Q 12.9375 15.53125 16.9375 10.796875 
Q 20.953125 6.0625 27.390625 6.0625 
Q 32.5625 6.0625 36.03125 9.234375 
Q 39.5 12.40625 40.4375 19 
z
" id="ArialMT-99"/>
       <path d="M 9.328125 0 
L 9.328125 71.578125 
L 18.796875 71.578125 
L 18.796875 0 
z
" id="ArialMT-73"/>
       <path d="M 32.328125 0 
L 32.328125 17.140625 
L 1.265625 17.140625 
L 1.265625 25.203125 
L 33.9375 71.578125 
L 41.109375 71.578125 
L 41.109375 25.203125 
L 50.78125 25.203125 
L 50.78125 17.140625 
L 41.109375 17.140625 
L 41.109375 0 
z
M 32.328125 25.203125 
L 32.328125 57.46875 
L 9.90625 25.203125 
z
" id="ArialMT-52"/>
      </defs>
      <g style="fill:#262626;" transform="translate(72.67813 302.747768)rotate(-45)scale(0.1 -0.1)">
       <use xlink:href="#ArialMT-76"/>
       <use x="55.615234" xlink:href="#ArialMT-97"/>
       <use x="111.230469" xlink:href="#ArialMT-99"/>
       <use x="161.230469" xlink:href="#ArialMT-73"/>
       <use x="189.013672" xlink:href="#ArialMT-52"/>
      </g>
     </g>
    </g>
    <g id="xtick_2">
     <g id="text_2">
      <!-- cas9B -->
      <defs>
       <path d="M 3.078125 15.484375 
L 11.765625 16.84375 
Q 12.5 11.625 15.84375 8.84375 
Q 19.1875 6.0625 25.203125 6.0625 
Q 31.25 6.0625 34.171875 8.515625 
Q 37.109375 10.984375 37.109375 14.3125 
Q 37.109375 17.28125 34.515625 19 
Q 32.71875 20.171875 25.53125 21.96875 
Q 15.875 24.421875 12.140625 26.203125 
Q 8.40625 27.984375 6.46875 31.125 
Q 4.546875 34.28125 4.546875 38.09375 
Q 4.546875 41.546875 6.125 44.5 
Q 7.71875 47.46875 10.453125 49.421875 
Q 12.5 50.921875 16.03125 51.96875 
Q 19.578125 53.03125 23.640625 53.03125 
Q 29.734375 53.03125 34.34375 51.265625 
Q 38.96875 49.515625 41.15625 46.5 
Q 43.359375 43.5 44.1875 38.484375 
L 35.59375 37.3125 
Q 35.015625 41.3125 32.203125 43.546875 
Q 29.390625 45.796875 24.265625 45.796875 
Q 18.21875 45.796875 15.625 43.796875 
Q 13.03125 41.796875 13.03125 39.109375 
Q 13.03125 37.40625 14.109375 36.03125 
Q 15.1875 34.625 17.484375 33.6875 
Q 18.796875 33.203125 25.25 31.453125 
Q 34.578125 28.953125 38.25 27.359375 
Q 41.9375 25.78125 44.03125 22.75 
Q 46.140625 19.734375 46.140625 15.234375 
Q 46.140625 10.84375 43.578125 6.953125 
Q 41.015625 3.078125 36.171875 0.953125 
Q 31.34375 -1.171875 25.25 -1.171875 
Q 15.140625 -1.171875 9.84375 3.03125 
Q 4.546875 7.234375 3.078125 15.484375 
z
" id="ArialMT-115"/>
       <path d="M 5.46875 16.546875 
L 13.921875 17.328125 
Q 14.984375 11.375 18.015625 8.6875 
Q 21.046875 6 25.78125 6 
Q 29.828125 6 32.875 7.859375 
Q 35.9375 9.71875 37.890625 12.8125 
Q 39.84375 15.921875 41.15625 21.1875 
Q 42.484375 26.46875 42.484375 31.9375 
Q 42.484375 32.515625 42.4375 33.6875 
Q 39.796875 29.5 35.234375 26.875 
Q 30.671875 24.265625 25.34375 24.265625 
Q 16.453125 24.265625 10.296875 30.703125 
Q 4.15625 37.15625 4.15625 47.703125 
Q 4.15625 58.59375 10.578125 65.234375 
Q 17 71.875 26.65625 71.875 
Q 33.640625 71.875 39.421875 68.109375 
Q 45.21875 64.359375 48.21875 57.390625 
Q 51.21875 50.4375 51.21875 37.25 
Q 51.21875 23.53125 48.234375 15.40625 
Q 45.265625 7.28125 39.375 3.03125 
Q 33.5 -1.21875 25.59375 -1.21875 
Q 17.1875 -1.21875 11.859375 3.4375 
Q 6.546875 8.109375 5.46875 16.546875 
z
M 41.453125 48.140625 
Q 41.453125 55.71875 37.421875 60.15625 
Q 33.40625 64.59375 27.734375 64.59375 
Q 21.875 64.59375 17.53125 59.8125 
Q 13.1875 55.03125 13.1875 47.40625 
Q 13.1875 40.578125 17.3125 36.296875 
Q 21.4375 32.03125 27.484375 32.03125 
Q 33.59375 32.03125 37.515625 36.296875 
Q 41.453125 40.578125 41.453125 48.140625 
z
" id="ArialMT-57"/>
       <path d="M 7.328125 0 
L 7.328125 71.578125 
L 34.1875 71.578125 
Q 42.390625 71.578125 47.34375 69.40625 
Q 52.296875 67.234375 55.09375 62.71875 
Q 57.90625 58.203125 57.90625 53.265625 
Q 57.90625 48.6875 55.421875 44.625 
Q 52.9375 40.578125 47.90625 38.09375 
Q 54.390625 36.1875 57.875 31.59375 
Q 61.375 27 61.375 20.75 
Q 61.375 15.71875 59.25 11.390625 
Q 57.125 7.078125 54 4.734375 
Q 50.875 2.390625 46.15625 1.1875 
Q 41.453125 0 34.625 0 
z
M 16.796875 41.5 
L 32.28125 41.5 
Q 38.578125 41.5 41.3125 42.328125 
Q 44.921875 43.40625 46.75 45.890625 
Q 48.578125 48.390625 48.578125 52.15625 
Q 48.578125 55.71875 46.875 58.421875 
Q 45.171875 61.140625 41.984375 62.140625 
Q 38.8125 63.140625 31.109375 63.140625 
L 16.796875 63.140625 
z
M 16.796875 8.453125 
L 34.625 8.453125 
Q 39.203125 8.453125 41.0625 8.796875 
Q 44.34375 9.375 46.53125 10.734375 
Q 48.734375 12.109375 50.140625 14.71875 
Q 51.5625 17.328125 51.5625 20.75 
Q 51.5625 24.75 49.515625 27.703125 
Q 47.46875 30.671875 43.828125 31.859375 
Q 40.1875 33.0625 33.34375 33.0625 
L 16.796875 33.0625 
z
" id="ArialMT-66"/>
      </defs>
      <g style="fill:#262626;" transform="translate(167.002581 305.103317)rotate(-45)scale(0.1 -0.1)">
       <use xlink:href="#ArialMT-99"/>
       <use x="50" xlink:href="#ArialMT-97"/>
       <use x="105.615234" xlink:href="#ArialMT-115"/>
       <use x="155.615234" xlink:href="#ArialMT-57"/>
       <use x="211.230469" xlink:href="#ArialMT-66"/>
      </g>
     </g>
    </g>
    <g id="text_3">
     <!-- Element -->
     <defs>
      <path d="M 7.90625 0 
L 7.90625 71.578125 
L 59.671875 71.578125 
L 59.671875 63.140625 
L 17.390625 63.140625 
L 17.390625 41.21875 
L 56.984375 41.21875 
L 56.984375 32.8125 
L 17.390625 32.8125 
L 17.390625 8.453125 
L 61.328125 8.453125 
L 61.328125 0 
z
" id="ArialMT-69"/>
      <path d="M 6.390625 0 
L 6.390625 71.578125 
L 15.1875 71.578125 
L 15.1875 0 
z
" id="ArialMT-108"/>
      <path d="M 42.09375 16.703125 
L 51.171875 15.578125 
Q 49.03125 7.625 43.21875 3.21875 
Q 37.40625 -1.171875 28.375 -1.171875 
Q 17 -1.171875 10.328125 5.828125 
Q 3.65625 12.84375 3.65625 25.484375 
Q 3.65625 38.578125 10.390625 45.796875 
Q 17.140625 53.03125 27.875 53.03125 
Q 38.28125 53.03125 44.875 45.953125 
Q 51.46875 38.875 51.46875 26.03125 
Q 51.46875 25.25 51.421875 23.6875 
L 12.75 23.6875 
Q 13.234375 15.140625 17.578125 10.59375 
Q 21.921875 6.0625 28.421875 6.0625 
Q 33.25 6.0625 36.671875 8.59375 
Q 40.09375 11.140625 42.09375 16.703125 
z
M 13.234375 30.90625 
L 42.1875 30.90625 
Q 41.609375 37.453125 38.875 40.71875 
Q 34.671875 45.796875 27.984375 45.796875 
Q 21.921875 45.796875 17.796875 41.75 
Q 13.671875 37.703125 13.234375 30.90625 
z
" id="ArialMT-101"/>
      <path d="M 6.59375 0 
L 6.59375 51.859375 
L 14.453125 51.859375 
L 14.453125 44.578125 
Q 16.890625 48.390625 20.9375 50.703125 
Q 25 53.03125 30.171875 53.03125 
Q 35.9375 53.03125 39.625 50.640625 
Q 43.3125 48.25 44.828125 43.953125 
Q 50.984375 53.03125 60.84375 53.03125 
Q 68.5625 53.03125 72.703125 48.75 
Q 76.859375 44.484375 76.859375 35.59375 
L 76.859375 0 
L 68.109375 0 
L 68.109375 32.671875 
Q 68.109375 37.9375 67.25 40.25 
Q 66.40625 42.578125 64.15625 43.984375 
Q 61.921875 45.40625 58.890625 45.40625 
Q 53.421875 45.40625 49.796875 41.765625 
Q 46.1875 38.140625 46.1875 30.125 
L 46.1875 0 
L 37.40625 0 
L 37.40625 33.6875 
Q 37.40625 39.546875 35.25 42.46875 
Q 33.109375 45.40625 28.21875 45.40625 
Q 24.515625 45.40625 21.359375 43.453125 
Q 18.21875 41.5 16.796875 37.734375 
Q 15.375 33.984375 15.375 26.90625 
L 15.375 0 
z
" id="ArialMT-109"/>
      <path d="M 6.59375 0 
L 6.59375 51.859375 
L 14.5 51.859375 
L 14.5 44.484375 
Q 20.21875 53.03125 31 53.03125 
Q 35.6875 53.03125 39.625 51.34375 
Q 43.5625 49.65625 45.515625 46.921875 
Q 47.46875 44.1875 48.25 40.4375 
Q 48.734375 37.984375 48.734375 31.890625 
L 48.734375 0 
L 39.9375 0 
L 39.9375 31.546875 
Q 39.9375 36.921875 38.90625 39.578125 
Q 37.890625 42.234375 35.28125 43.8125 
Q 32.671875 45.40625 29.15625 45.40625 
Q 23.53125 45.40625 19.453125 41.84375 
Q 15.375 38.28125 15.375 28.328125 
L 15.375 0 
z
" id="ArialMT-110"/>
      <path d="M 25.78125 7.859375 
L 27.046875 0.09375 
Q 23.34375 -0.6875 20.40625 -0.6875 
Q 15.625 -0.6875 12.984375 0.828125 
Q 10.359375 2.34375 9.28125 4.8125 
Q 8.203125 7.28125 8.203125 15.1875 
L 8.203125 45.015625 
L 1.765625 45.015625 
L 1.765625 51.859375 
L 8.203125 51.859375 
L 8.203125 64.703125 
L 16.9375 69.96875 
L 16.9375 51.859375 
L 25.78125 51.859375 
L 25.78125 45.015625 
L 16.9375 45.015625 
L 16.9375 14.703125 
Q 16.9375 10.9375 17.40625 9.859375 
Q 17.875 8.796875 18.921875 8.15625 
Q 19.96875 7.515625 21.921875 7.515625 
Q 23.390625 7.515625 25.78125 7.859375 
z
" id="ArialMT-116"/>
     </defs>
     <g style="fill:#262626;" transform="translate(121.378594 317.666504)scale(0.1 -0.1)">
      <use xlink:href="#ArialMT-69"/>
      <use x="66.699219" xlink:href="#ArialMT-108"/>
      <use x="88.916016" xlink:href="#ArialMT-101"/>
      <use x="144.53125" xlink:href="#ArialMT-109"/>
      <use x="227.832031" xlink:href="#ArialMT-101"/>
      <use x="283.447266" xlink:href="#ArialMT-110"/>
      <use x="339.0625" xlink:href="#ArialMT-116"/>
     </g>
    </g>
   </g>
   <g id="matplotlib.axis_2">
    <g id="ytick_1">
     <g id="text_4">
      <!-- 5 -->
      <defs>
       <path d="M 4.15625 18.75 
L 13.375 19.53125 
Q 14.40625 12.796875 18.140625 9.390625 
Q 21.875 6 27.15625 6 
Q 33.5 6 37.890625 10.78125 
Q 42.28125 15.578125 42.28125 23.484375 
Q 42.28125 31 38.0625 35.34375 
Q 33.84375 39.703125 27 39.703125 
Q 22.75 39.703125 19.328125 37.765625 
Q 15.921875 35.84375 13.96875 32.765625 
L 5.71875 33.84375 
L 12.640625 70.609375 
L 48.25 70.609375 
L 48.25 62.203125 
L 19.671875 62.203125 
L 15.828125 42.96875 
Q 22.265625 47.46875 29.34375 47.46875 
Q 38.71875 47.46875 45.15625 40.96875 
Q 51.609375 34.46875 51.609375 24.265625 
Q 51.609375 14.546875 45.953125 7.46875 
Q 39.0625 -1.21875 27.15625 -1.21875 
Q 17.390625 -1.21875 11.203125 4.25 
Q 5.03125 9.71875 4.15625 18.75 
z
" id="ArialMT-53"/>
      </defs>
      <g style="fill:#262626;" transform="translate(30.479062 228.577364)scale(0.1 -0.1)">
       <use xlink:href="#ArialMT-53"/>
      </g>
     </g>
    </g>
    <g id="ytick_2">
     <g id="text_5">
      <!-- 10 -->
      <defs>
       <path d="M 37.25 0 
L 28.46875 0 
L 28.46875 56 
Q 25.296875 52.984375 20.140625 49.953125 
Q 14.984375 46.921875 10.890625 45.40625 
L 10.890625 53.90625 
Q 18.265625 57.375 23.78125 62.296875 
Q 29.296875 67.234375 31.59375 71.875 
L 37.25 71.875 
z
" id="ArialMT-49"/>
       <path d="M 4.15625 35.296875 
Q 4.15625 48 6.765625 55.734375 
Q 9.375 63.484375 14.515625 67.671875 
Q 19.671875 71.875 27.484375 71.875 
Q 33.25 71.875 37.59375 69.546875 
Q 41.9375 67.234375 44.765625 62.859375 
Q 47.609375 58.5 49.21875 52.21875 
Q 50.828125 45.953125 50.828125 35.296875 
Q 50.828125 22.703125 48.234375 14.96875 
Q 45.65625 7.234375 40.5 3 
Q 35.359375 -1.21875 27.484375 -1.21875 
Q 17.140625 -1.21875 11.234375 6.203125 
Q 4.15625 15.140625 4.15625 35.296875 
z
M 13.1875 35.296875 
Q 13.1875 17.671875 17.3125 11.828125 
Q 21.4375 6 27.484375 6 
Q 33.546875 6 37.671875 11.859375 
Q 41.796875 17.71875 41.796875 35.296875 
Q 41.796875 52.984375 37.671875 58.78125 
Q 33.546875 64.59375 27.390625 64.59375 
Q 21.34375 64.59375 17.71875 59.46875 
Q 13.1875 52.9375 13.1875 35.296875 
z
" id="ArialMT-48"/>
      </defs>
      <g style="fill:#262626;" transform="translate(24.918125 178.863856)scale(0.1 -0.1)">
       <use xlink:href="#ArialMT-49"/>
       <use x="55.615234" xlink:href="#ArialMT-48"/>
      </g>
     </g>
    </g>
    <g id="ytick_3">
     <g id="text_6">
      <!-- 15 -->
      <g style="fill:#262626;" transform="translate(24.918125 129.150348)scale(0.1 -0.1)">
       <use xlink:href="#ArialMT-49"/>
       <use x="55.615234" xlink:href="#ArialMT-53"/>
      </g>
     </g>
    </g>
    <g id="ytick_4">
     <g id="text_7">
      <!-- 20 -->
      <defs>
       <path d="M 50.34375 8.453125 
L 50.34375 0 
L 3.03125 0 
Q 2.9375 3.171875 4.046875 6.109375 
Q 5.859375 10.9375 9.828125 15.625 
Q 13.8125 20.3125 21.34375 26.46875 
Q 33.015625 36.03125 37.109375 41.625 
Q 41.21875 47.21875 41.21875 52.203125 
Q 41.21875 57.421875 37.46875 61 
Q 33.734375 64.59375 27.734375 64.59375 
Q 21.390625 64.59375 17.578125 60.78125 
Q 13.765625 56.984375 13.71875 50.25 
L 4.6875 51.171875 
Q 5.609375 61.28125 11.65625 66.578125 
Q 17.71875 71.875 27.9375 71.875 
Q 38.234375 71.875 44.234375 66.15625 
Q 50.25 60.453125 50.25 52 
Q 50.25 47.703125 48.484375 43.546875 
Q 46.734375 39.40625 42.65625 34.8125 
Q 38.578125 30.21875 29.109375 22.21875 
Q 21.1875 15.578125 18.9375 13.203125 
Q 16.703125 10.84375 15.234375 8.453125 
z
" id="ArialMT-50"/>
      </defs>
      <g style="fill:#262626;" transform="translate(24.918125 79.43684)scale(0.1 -0.1)">
       <use xlink:href="#ArialMT-50"/>
       <use x="55.615234" xlink:href="#ArialMT-48"/>
      </g>
     </g>
    </g>
    <g id="ytick_5">
     <g id="text_8">
      <!-- 25 -->
      <g style="fill:#262626;" transform="translate(24.918125 29.723332)scale(0.1 -0.1)">
       <use xlink:href="#ArialMT-50"/>
       <use x="55.615234" xlink:href="#ArialMT-53"/>
      </g>
     </g>
    </g>
    <g id="text_9">
     <!-- Fraction -->
     <defs>
      <path d="M 8.203125 0 
L 8.203125 71.578125 
L 56.5 71.578125 
L 56.5 63.140625 
L 17.671875 63.140625 
L 17.671875 40.96875 
L 51.265625 40.96875 
L 51.265625 32.515625 
L 17.671875 32.515625 
L 17.671875 0 
z
" id="ArialMT-70"/>
      <path d="M 6.5 0 
L 6.5 51.859375 
L 14.40625 51.859375 
L 14.40625 44 
Q 17.4375 49.515625 20 51.265625 
Q 22.5625 53.03125 25.640625 53.03125 
Q 30.078125 53.03125 34.671875 50.203125 
L 31.640625 42.046875 
Q 28.421875 43.953125 25.203125 43.953125 
Q 22.3125 43.953125 20.015625 42.21875 
Q 17.71875 40.484375 16.75 37.40625 
Q 15.28125 32.71875 15.28125 27.15625 
L 15.28125 0 
z
" id="ArialMT-114"/>
      <path d="M 6.640625 61.46875 
L 6.640625 71.578125 
L 15.4375 71.578125 
L 15.4375 61.46875 
z
M 6.640625 0 
L 6.640625 51.859375 
L 15.4375 51.859375 
L 15.4375 0 
z
" id="ArialMT-105"/>
      <path d="M 3.328125 25.921875 
Q 3.328125 40.328125 11.328125 47.265625 
Q 18.015625 53.03125 27.640625 53.03125 
Q 38.328125 53.03125 45.109375 46.015625 
Q 51.90625 39.015625 51.90625 26.65625 
Q 51.90625 16.65625 48.90625 10.90625 
Q 45.90625 5.171875 40.15625 2 
Q 34.421875 -1.171875 27.640625 -1.171875 
Q 16.75 -1.171875 10.03125 5.8125 
Q 3.328125 12.796875 3.328125 25.921875 
z
M 12.359375 25.921875 
Q 12.359375 15.96875 16.703125 11.015625 
Q 21.046875 6.0625 27.640625 6.0625 
Q 34.1875 6.0625 38.53125 11.03125 
Q 42.875 16.015625 42.875 26.21875 
Q 42.875 35.84375 38.5 40.796875 
Q 34.125 45.75 27.640625 45.75 
Q 21.046875 45.75 16.703125 40.8125 
Q 12.359375 35.890625 12.359375 25.921875 
z
" id="ArialMT-111"/>
     </defs>
     <g style="fill:#262626;" transform="translate(18.930625 160.155124)rotate(-90)scale(0.1 -0.1)">
      <use xlink:href="#ArialMT-70"/>
      <use x="61.083984" xlink:href="#ArialMT-114"/>
      <use x="94.384766" xlink:href="#ArialMT-97"/>
      <use x="150" xlink:href="#ArialMT-99"/>
      <use x="200" xlink:href="#ArialMT-116"/>
      <use x="227.783203" xlink:href="#ArialMT-105"/>
      <use x="250" xlink:href="#ArialMT-111"/>
      <use x="305.615234" xlink:href="#ArialMT-110"/>
     </g>
    </g>
   </g>
   <g id="PathCollection_1"/>
   <g id="PathCollection_2"/>
   <g id="PathCollection_3"/>
   <g id="patch_3">
    <path d="M 43.04 273.389935 
L 43.04 10.8 
" style="fill:none;stroke:#cccccc;stroke-linecap:square;stroke-linejoin:miter;stroke-width:0.8;"/>
   </g>
   <g id="patch_4">
    <path d="M 236.4 273.389935 
L 236.4 10.8 
" style="fill:none;stroke:#cccccc;stroke-linecap:square;stroke-linejoin:miter;stroke-width:0.8;"/>
   </g>
   <g id="patch_5">
    <path d="M 43.04 273.389935 
L 236.4 273.389935 
" style="fill:none;stroke:#cccccc;stroke-linecap:square;stroke-linejoin:miter;stroke-width:0.8;"/>
   </g>
   <g id="patch_6">
    <path d="M 43.04 10.8 
L 236.4 10.8 
" style="fill:none;stroke:#cccccc;stroke-linecap:square;stroke-linejoin:miter;stroke-width:0.8;"/>
   </g>
   <g id="PathCollection_4">
    <defs>
     <path d="M 0 2.5 
C 0.663008 2.5 1.29895 2.236584 1.767767 1.767767 
C 2.236584 1.29895 2.5 0.663008 2.5 0 
C 2.5 -0.663008 2.236584 -1.29895 1.767767 -1.767767 
C 1.29895 -2.236584 0.663008 -2.5 0 -2.5 
C -0.663008 -2.5 -1.29895 -2.236584 -1.767767 -1.767767 
C -2.236584 -1.29895 -2.5 -0.663008 -2.5 0 
C -2.5 0.663008 -2.236584 1.29895 -1.767767 1.767767 
C -1.29895 2.236584 -0.663008 2.5 0 2.5 
z
" id="C0_0_46675bc1c9"/>
    </defs>
    <g clip-path="url(#pcefdac34f6)">
     <use style="fill:#1f77b4;" x="91.38" xlink:href="#C0_0_46675bc1c9" y="259.760535"/>
    </g>
    <g clip-path="url(#pcefdac34f6)">
     <use style="fill:#ff7f0e;" x="85.359092" xlink:href="#C0_0_46675bc1c9" y="258.67535"/>
    </g>
    <g clip-path="url(#pcefdac34f6)">
     <use style="fill:#1f77b4;" x="97.309619" xlink:href="#C0_0_46675bc1c9" y="258.412455"/>
    </g>
    <g clip-path="url(#pcefdac34f6)">
     <use style="fill:#1f77b4;" x="103.49506" xlink:href="#C0_0_46675bc1c9" y="258.412455"/>
    </g>
    <g clip-path="url(#pcefdac34f6)">
     <use style="fill:#1f77b4;" x="79.192602" xlink:href="#C0_0_46675bc1c9" y="258.304868"/>
    </g>
    <g clip-path="url(#pcefdac34f6)">
     <use style="fill:#ff7f0e;" x="109.629016" xlink:href="#C0_0_46675bc1c9" y="257.802609"/>
    </g>
    <g clip-path="url(#pcefdac34f6)">
     <use style="fill:#1f77b4;" x="73.328893" xlink:href="#C0_0_46675bc1c9" y="256.797188"/>
    </g>
    <g clip-path="url(#pcefdac34f6)">
     <use style="fill:#1f77b4;" x="67.14711" xlink:href="#C0_0_46675bc1c9" y="256.634326"/>
    </g>
    <g clip-path="url(#pcefdac34f6)">
     <use style="fill:#1f77b4;" x="91.38" xlink:href="#C0_0_46675bc1c9" y="254.351486"/>
    </g>
    <g clip-path="url(#pcefdac34f6)">
     <use style="fill:#1f77b4;" x="82.984768" xlink:href="#C0_0_46675bc1c9" y="254.301728"/>
    </g>
    <g clip-path="url(#pcefdac34f6)">
     <use style="fill:#ff7f0e;" x="97.344688" xlink:href="#C0_0_46675bc1c9" y="253.097397"/>
    </g>
    <g clip-path="url(#pcefdac34f6)">
     <use style="fill:#ff7f0e;" x="103.518869" xlink:href="#C0_0_46675bc1c9" y="252.811742"/>
    </g>
    <g clip-path="url(#pcefdac34f6)">
     <use style="fill:#1f77b4;" x="77.621304" xlink:href="#C0_0_46675bc1c9" y="251.942421"/>
    </g>
    <g clip-path="url(#pcefdac34f6)">
     <use style="fill:#1f77b4;" x="88.194788" xlink:href="#C0_0_46675bc1c9" y="250.291296"/>
    </g>
    <g clip-path="url(#pcefdac34f6)">
     <use style="fill:#ff7f0e;" x="108.732171" xlink:href="#C0_0_46675bc1c9" y="250.2627"/>
    </g>
    <g clip-path="url(#pcefdac34f6)">
     <use style="fill:#1f77b4;" x="71.866874" xlink:href="#C0_0_46675bc1c9" y="250.205307"/>
    </g>
    <g clip-path="url(#pcefdac34f6)">
     <use style="fill:#1f77b4;" x="114.916216" xlink:href="#C0_0_46675bc1c9" y="250.162086"/>
    </g>
    <g clip-path="url(#pcefdac34f6)">
     <use style="fill:#1f77b4;" x="93.664561" xlink:href="#C0_0_46675bc1c9" y="248.079729"/>
    </g>
    <g clip-path="url(#pcefdac34f6)">
     <use style="fill:#1f77b4;" x="88.50382" xlink:href="#C0_0_46675bc1c9" y="245.468726"/>
    </g>
    <g clip-path="url(#pcefdac34f6)">
     <use style="fill:#1f77b4;" x="93.895791" xlink:href="#C0_0_46675bc1c9" y="243.147833"/>
    </g>
    <g clip-path="url(#pcefdac34f6)">
     <use style="fill:#1f77b4;" x="84.138677" xlink:href="#C0_0_46675bc1c9" y="242.112945"/>
    </g>
    <g clip-path="url(#pcefdac34f6)">
     <use style="fill:#1f77b4;" x="91.38" xlink:href="#C0_0_46675bc1c9" y="208.543375"/>
    </g>
    <g clip-path="url(#pcefdac34f6)">
     <use style="fill:#1f77b4;" x="91.38" xlink:href="#C0_0_46675bc1c9" y="173.335402"/>
    </g>
    <g clip-path="url(#pcefdac34f6)">
     <use style="fill:#ff7f0e;" x="91.38" xlink:href="#C0_0_46675bc1c9" y="22.800469"/>
    </g>
   </g>
   <g id="PathCollection_5">
    <defs>
     <path d="M 0 2.5 
C 0.663008 2.5 1.29895 2.236584 1.767767 1.767767 
C 2.236584 1.29895 2.5 0.663008 2.5 0 
C 2.5 -0.663008 2.236584 -1.29895 1.767767 -1.767767 
C 1.29895 -2.236584 0.663008 -2.5 0 -2.5 
C -0.663008 -2.5 -1.29895 -2.236584 -1.767767 -1.767767 
C -2.236584 -1.29895 -2.5 -0.663008 -2.5 0 
C -2.5 0.663008 -2.236584 1.29895 -1.767767 1.767767 
C -1.29895 2.236584 -0.663008 2.5 0 2.5 
z
" id="C1_0_1e82a756bd"/>
    </defs>
    <g clip-path="url(#pcefdac34f6)">
     <use style="fill:#1f77b4;" x="188.06" xlink:href="#C1_0_1e82a756bd" y="259.760535"/>
    </g>
    <g clip-path="url(#pcefdac34f6)">
     <use style="fill:#1f77b4;" x="181.874629" xlink:href="#C1_0_1e82a756bd" y="259.738017"/>
    </g>
    <g clip-path="url(#pcefdac34f6)">
     <use style="fill:#1f77b4;" x="194.240476" xlink:href="#C1_0_1e82a756bd" y="259.570796"/>
    </g>
    <g clip-path="url(#pcefdac34f6)">
     <use style="fill:#ff7f0e;" x="175.695027" xlink:href="#C1_0_1e82a756bd" y="259.532269"/>
    </g>
    <g clip-path="url(#pcefdac34f6)">
     <use style="fill:#1f77b4;" x="200.425712" xlink:href="#C1_0_1e82a756bd" y="259.532269"/>
    </g>
    <g clip-path="url(#pcefdac34f6)">
     <use style="fill:#ff7f0e;" x="169.509793" xlink:href="#C1_0_1e82a756bd" y="259.493545"/>
    </g>
    <g clip-path="url(#pcefdac34f6)">
     <use style="fill:#1f77b4;" x="206.609273" xlink:href="#C1_0_1e82a756bd" y="259.415501"/>
    </g>
    <g clip-path="url(#pcefdac34f6)">
     <use style="fill:#1f77b4;" x="212.794714" xlink:href="#C1_0_1e82a756bd" y="259.415501"/>
    </g>
    <g clip-path="url(#pcefdac34f6)">
     <use style="fill:#2ca02c;" x="163.325192" xlink:href="#C1_0_1e82a756bd" y="259.415501"/>
    </g>
    <g clip-path="url(#pcefdac34f6)">
     <use style="fill:#1f77b4;" x="218.978216" xlink:href="#C1_0_1e82a756bd" y="259.296924"/>
    </g>
    <g clip-path="url(#pcefdac34f6)">
     <use style="fill:#ff7f0e;" x="157.141689" xlink:href="#C1_0_1e82a756bd" y="259.296924"/>
    </g>
    <g clip-path="url(#pcefdac34f6)">
     <use style="fill:#1f77b4;" x="225.161657" xlink:href="#C1_0_1e82a756bd" y="259.176494"/>
    </g>
    <g clip-path="url(#pcefdac34f6)">
     <use style="fill:#1f77b4;" x="150.964378" xlink:href="#C1_0_1e82a756bd" y="259.054168"/>
    </g>
    <g clip-path="url(#pcefdac34f6)">
     <use style="fill:#2ca02c;" x="226.732" xlink:href="#C1_0_1e82a756bd" y="258.929899"/>
    </g>
    <g clip-path="url(#pcefdac34f6)">
     <use style="fill:#1f77b4;" x="149.388" xlink:href="#C1_0_1e82a756bd" y="258.929899"/>
    </g>
    <g clip-path="url(#pcefdac34f6)">
     <use style="fill:#1f77b4;" x="226.732" xlink:href="#C1_0_1e82a756bd" y="258.929899"/>
    </g>
    <g clip-path="url(#pcefdac34f6)">
     <use style="fill:#1f77b4;" x="149.388" xlink:href="#C1_0_1e82a756bd" y="258.929899"/>
    </g>
    <g clip-path="url(#pcefdac34f6)">
     <use style="fill:#1f77b4;" x="226.732" xlink:href="#C1_0_1e82a756bd" y="258.845952"/>
    </g>
    <g clip-path="url(#pcefdac34f6)">
     <use style="fill:#1f77b4;" x="149.388" xlink:href="#C1_0_1e82a756bd" y="258.803643"/>
    </g>
    <g clip-path="url(#pcefdac34f6)">
     <use style="fill:#1f77b4;" x="149.388" xlink:href="#C1_0_1e82a756bd" y="258.803643"/>
    </g>
    <g clip-path="url(#pcefdac34f6)">
     <use style="fill:#1f77b4;" x="226.732" xlink:href="#C1_0_1e82a756bd" y="258.67535"/>
    </g>
    <g clip-path="url(#pcefdac34f6)">
     <use style="fill:#ff7f0e;" x="226.732" xlink:href="#C1_0_1e82a756bd" y="258.67535"/>
    </g>
    <g clip-path="url(#pcefdac34f6)">
     <use style="fill:#1f77b4;" x="149.388" xlink:href="#C1_0_1e82a756bd" y="258.277748"/>
    </g>
    <g clip-path="url(#pcefdac34f6)">
     <use style="fill:#ff7f0e;" x="149.388" xlink:href="#C1_0_1e82a756bd" y="258.277748"/>
    </g>
    <g clip-path="url(#pcefdac34f6)">
     <use style="fill:#1f77b4;" x="226.732" xlink:href="#C1_0_1e82a756bd" y="258.140797"/>
    </g>
    <g clip-path="url(#pcefdac34f6)">
     <use style="fill:#1f77b4;" x="226.732" xlink:href="#C1_0_1e82a756bd" y="258.140797"/>
    </g>
    <g clip-path="url(#pcefdac34f6)">
     <use style="fill:#1f77b4;" x="149.388" xlink:href="#C1_0_1e82a756bd" y="257.859929"/>
    </g>
    <g clip-path="url(#pcefdac34f6)">
     <use style="fill:#2ca02c;" x="226.732" xlink:href="#C1_0_1e82a756bd" y="257.715894"/>
    </g>
    <g clip-path="url(#pcefdac34f6)">
     <use style="fill:#1f77b4;" x="149.388" xlink:href="#C1_0_1e82a756bd" y="257.569377"/>
    </g>
    <g clip-path="url(#pcefdac34f6)">
     <use style="fill:#2ca02c;" x="149.388" xlink:href="#C1_0_1e82a756bd" y="257.569377"/>
    </g>
    <g clip-path="url(#pcefdac34f6)">
     <use style="fill:#1f77b4;" x="226.732" xlink:href="#C1_0_1e82a756bd" y="257.359955"/>
    </g>
    <g clip-path="url(#pcefdac34f6)">
     <use style="fill:#1f77b4;" x="149.388" xlink:href="#C1_0_1e82a756bd" y="257.26863"/>
    </g>
    <g clip-path="url(#pcefdac34f6)">
     <use style="fill:#1f77b4;" x="226.732" xlink:href="#C1_0_1e82a756bd" y="257.217476"/>
    </g>
    <g clip-path="url(#pcefdac34f6)">
     <use style="fill:#1f77b4;" x="226.732" xlink:href="#C1_0_1e82a756bd" y="257.166021"/>
    </g>
    <g clip-path="url(#pcefdac34f6)">
     <use style="fill:#1f77b4;" x="149.388" xlink:href="#C1_0_1e82a756bd" y="257.114263"/>
    </g>
    <g clip-path="url(#pcefdac34f6)">
     <use style="fill:#2ca02c;" x="149.388" xlink:href="#C1_0_1e82a756bd" y="257.114263"/>
    </g>
    <g clip-path="url(#pcefdac34f6)">
     <use style="fill:#2ca02c;" x="226.732" xlink:href="#C1_0_1e82a756bd" y="256.743228"/>
    </g>
    <g clip-path="url(#pcefdac34f6)">
     <use style="fill:#1f77b4;" x="149.388" xlink:href="#C1_0_1e82a756bd" y="256.634326"/>
    </g>
    <g clip-path="url(#pcefdac34f6)">
     <use style="fill:#1f77b4;" x="226.732" xlink:href="#C1_0_1e82a756bd" y="256.468477"/>
    </g>
    <g clip-path="url(#pcefdac34f6)">
     <use style="fill:#1f77b4;" x="149.388" xlink:href="#C1_0_1e82a756bd" y="256.468477"/>
    </g>
    <g clip-path="url(#pcefdac34f6)">
     <use style="fill:#1f77b4;" x="226.732" xlink:href="#C1_0_1e82a756bd" y="256.299556"/>
    </g>
    <g clip-path="url(#pcefdac34f6)">
     <use style="fill:#ff7f0e;" x="149.388" xlink:href="#C1_0_1e82a756bd" y="255.952152"/>
    </g>
    <g clip-path="url(#pcefdac34f6)">
     <use style="fill:#1f77b4;" x="226.732" xlink:href="#C1_0_1e82a756bd" y="255.952152"/>
    </g>
    <g clip-path="url(#pcefdac34f6)">
     <use style="fill:#1f77b4;" x="149.388" xlink:href="#C1_0_1e82a756bd" y="255.952152"/>
    </g>
    <g clip-path="url(#pcefdac34f6)">
     <use style="fill:#1f77b4;" x="226.732" xlink:href="#C1_0_1e82a756bd" y="255.773486"/>
    </g>
    <g clip-path="url(#pcefdac34f6)">
     <use style="fill:#2ca02c;" x="190.885905" xlink:href="#C1_0_1e82a756bd" y="255.591386"/>
    </g>
    <g clip-path="url(#pcefdac34f6)">
     <use style="fill:#1f77b4;" x="184.705217" xlink:href="#C1_0_1e82a756bd" y="255.405749"/>
    </g>
    <g clip-path="url(#pcefdac34f6)">
     <use style="fill:#1f77b4;" x="197.051938" xlink:href="#C1_0_1e82a756bd" y="255.216472"/>
    </g>
    <g clip-path="url(#pcefdac34f6)">
     <use style="fill:#1f77b4;" x="178.524717" xlink:href="#C1_0_1e82a756bd" y="255.216472"/>
    </g>
    <g clip-path="url(#pcefdac34f6)">
     <use style="fill:#1f77b4;" x="203.189077" xlink:href="#C1_0_1e82a756bd" y="254.625701"/>
    </g>
    <g clip-path="url(#pcefdac34f6)">
     <use style="fill:#1f77b4;" x="172.808886" xlink:href="#C1_0_1e82a756bd" y="253.406177"/>
    </g>
    <g clip-path="url(#pcefdac34f6)">
     <use style="fill:#1f77b4;" x="209.043674" xlink:href="#C1_0_1e82a756bd" y="253.097397"/>
    </g>
    <g clip-path="url(#pcefdac34f6)">
     <use style="fill:#1f77b4;" x="166.653525" xlink:href="#C1_0_1e82a756bd" y="252.939627"/>
    </g>
    <g clip-path="url(#pcefdac34f6)">
     <use style="fill:#1f77b4;" x="215.221332" xlink:href="#C1_0_1e82a756bd" y="252.859873"/>
    </g>
    <g clip-path="url(#pcefdac34f6)">
     <use style="fill:#1f77b4;" x="160.482444" xlink:href="#C1_0_1e82a756bd" y="252.617072"/>
    </g>
    <g clip-path="url(#pcefdac34f6)">
     <use style="fill:#1f77b4;" x="188.06" xlink:href="#C1_0_1e82a756bd" y="251.038867"/>
    </g>
    <g clip-path="url(#pcefdac34f6)">
     <use style="fill:#ff7f0e;" x="194.137147" xlink:href="#C1_0_1e82a756bd" y="251.038867"/>
    </g>
    <g clip-path="url(#pcefdac34f6)">
     <use style="fill:#1f77b4;" x="181.920691" xlink:href="#C1_0_1e82a756bd" y="250.461473"/>
    </g>
    <g clip-path="url(#pcefdac34f6)">
     <use style="fill:#1f77b4;" x="200.2002" xlink:href="#C1_0_1e82a756bd" y="250.101317"/>
    </g>
    <g clip-path="url(#pcefdac34f6)">
     <use style="fill:#ff7f0e;" x="220.002875" xlink:href="#C1_0_1e82a756bd" y="249.855212"/>
    </g>
    <g clip-path="url(#pcefdac34f6)">
     <use style="fill:#ff7f0e;" x="175.952264" xlink:href="#C1_0_1e82a756bd" y="249.217858"/>
    </g>
    <g clip-path="url(#pcefdac34f6)">
     <use style="fill:#ff7f0e;" x="205.449123" xlink:href="#C1_0_1e82a756bd" y="247.595507"/>
    </g>
    <g clip-path="url(#pcefdac34f6)">
     <use style="fill:#1f77b4;" x="186.002017" xlink:href="#C1_0_1e82a756bd" y="246.572243"/>
    </g>
    <g clip-path="url(#pcefdac34f6)">
     <use style="fill:#1f77b4;" x="191.94235" xlink:href="#C1_0_1e82a756bd" y="245.25211"/>
    </g>
    <g clip-path="url(#pcefdac34f6)">
     <use style="fill:#1f77b4;" x="180.388797" xlink:href="#C1_0_1e82a756bd" y="244.582567"/>
    </g>
    <g clip-path="url(#pcefdac34f6)">
     <use style="fill:#1f77b4;" x="197.948194" xlink:href="#C1_0_1e82a756bd" y="244.119037"/>
    </g>
    <g clip-path="url(#pcefdac34f6)">
     <use style="fill:#2ca02c;" x="174.493957" xlink:href="#C1_0_1e82a756bd" y="243.147833"/>
    </g>
    <g clip-path="url(#pcefdac34f6)">
     <use style="fill:#ff7f0e;" x="188.06" xlink:href="#C1_0_1e82a756bd" y="240.028123"/>
    </g>
    <g clip-path="url(#pcefdac34f6)">
     <use style="fill:#1f77b4;" x="181.889198" xlink:href="#C1_0_1e82a756bd" y="239.702453"/>
    </g>
    <g clip-path="url(#pcefdac34f6)">
     <use style="fill:#1f77b4;" x="187.225754" xlink:href="#C1_0_1e82a756bd" y="235.33493"/>
    </g>
    <g clip-path="url(#pcefdac34f6)">
     <use style="fill:#1f77b4;" x="193.146112" xlink:href="#C1_0_1e82a756bd" y="233.96319"/>
    </g>
    <g clip-path="url(#pcefdac34f6)">
     <use style="fill:#1f77b4;" x="181.456737" xlink:href="#C1_0_1e82a756bd" y="233.626424"/>
    </g>
    <g clip-path="url(#pcefdac34f6)">
     <use style="fill:#1f77b4;" x="198.833099" xlink:href="#C1_0_1e82a756bd" y="232.100389"/>
    </g>
    <g clip-path="url(#pcefdac34f6)">
     <use style="fill:#ff7f0e;" x="188.06" xlink:href="#C1_0_1e82a756bd" y="225.544759"/>
    </g>
    <g clip-path="url(#pcefdac34f6)">
     <use style="fill:#1f77b4;" x="182.068107" xlink:href="#C1_0_1e82a756bd" y="224.369173"/>
    </g>
    <g clip-path="url(#pcefdac34f6)">
     <use style="fill:#ff7f0e;" x="188.06" xlink:href="#C1_0_1e82a756bd" y="156.346467"/>
    </g>
   </g>
   <g id="legend_1">
    <g id="patch_7">
     <path d="M 140.740625 75.38125 
L 229.4 75.38125 
Q 231.4 75.38125 231.4 73.38125 
L 231.4 17.8 
Q 231.4 15.8 229.4 15.8 
L 140.740625 15.8 
Q 138.740625 15.8 138.740625 17.8 
L 138.740625 73.38125 
Q 138.740625 75.38125 140.740625 75.38125 
z
" style="fill:#ffffff;opacity:0.8;stroke:#cccccc;stroke-linejoin:miter;"/>
    </g>
    <g id="text_10">
     <!-- IMPACT -->
     <defs>
      <path d="M 7.421875 0 
L 7.421875 71.578125 
L 21.6875 71.578125 
L 38.625 20.90625 
Q 40.96875 13.8125 42.046875 10.296875 
Q 43.265625 14.203125 45.84375 21.78125 
L 62.984375 71.578125 
L 75.734375 71.578125 
L 75.734375 0 
L 66.609375 0 
L 66.609375 59.90625 
L 45.796875 0 
L 37.25 0 
L 16.546875 60.9375 
L 16.546875 0 
z
" id="ArialMT-77"/>
      <path d="M 7.71875 0 
L 7.71875 71.578125 
L 34.71875 71.578125 
Q 41.84375 71.578125 45.609375 70.90625 
Q 50.875 70.015625 54.4375 67.546875 
Q 58.015625 65.09375 60.1875 60.640625 
Q 62.359375 56.203125 62.359375 50.875 
Q 62.359375 41.75 56.546875 35.421875 
Q 50.734375 29.109375 35.546875 29.109375 
L 17.1875 29.109375 
L 17.1875 0 
z
M 17.1875 37.546875 
L 35.6875 37.546875 
Q 44.875 37.546875 48.734375 40.96875 
Q 52.59375 44.390625 52.59375 50.59375 
Q 52.59375 55.078125 50.3125 58.265625 
Q 48.046875 61.46875 44.34375 62.5 
Q 41.9375 63.140625 35.5 63.140625 
L 17.1875 63.140625 
z
" id="ArialMT-80"/>
      <path d="M -0.140625 0 
L 27.34375 71.578125 
L 37.546875 71.578125 
L 66.84375 0 
L 56.0625 0 
L 47.703125 21.6875 
L 17.78125 21.6875 
L 9.90625 0 
z
M 20.515625 29.390625 
L 44.78125 29.390625 
L 37.3125 49.21875 
Q 33.890625 58.25 32.234375 64.0625 
Q 30.859375 57.171875 28.375 50.390625 
z
" id="ArialMT-65"/>
      <path d="M 58.796875 25.09375 
L 68.265625 22.703125 
Q 65.28125 11.03125 57.546875 4.90625 
Q 49.8125 -1.21875 38.625 -1.21875 
Q 27.046875 -1.21875 19.796875 3.484375 
Q 12.546875 8.203125 8.765625 17.140625 
Q 4.984375 26.078125 4.984375 36.328125 
Q 4.984375 47.515625 9.25 55.828125 
Q 13.53125 64.15625 21.40625 68.46875 
Q 29.296875 72.796875 38.765625 72.796875 
Q 49.515625 72.796875 56.828125 67.328125 
Q 64.15625 61.859375 67.046875 51.953125 
L 57.71875 49.75 
Q 55.21875 57.5625 50.484375 61.125 
Q 45.75 64.703125 38.578125 64.703125 
Q 30.328125 64.703125 24.78125 60.734375 
Q 19.234375 56.78125 16.984375 50.109375 
Q 14.75 43.453125 14.75 36.375 
Q 14.75 27.25 17.40625 20.4375 
Q 20.0625 13.625 25.671875 10.25 
Q 31.296875 6.890625 37.84375 6.890625 
Q 45.796875 6.890625 51.3125 11.46875 
Q 56.84375 16.0625 58.796875 25.09375 
z
" id="ArialMT-67"/>
      <path d="M 25.921875 0 
L 25.921875 63.140625 
L 2.34375 63.140625 
L 2.34375 71.578125 
L 59.078125 71.578125 
L 59.078125 63.140625 
L 35.40625 63.140625 
L 35.40625 0 
z
" id="ArialMT-84"/>
     </defs>
     <g style="fill:#262626;" transform="translate(166.186719 26.957813)scale(0.1 -0.1)">
      <use xlink:href="#ArialMT-73"/>
      <use x="27.783203" xlink:href="#ArialMT-77"/>
      <use x="111.083984" xlink:href="#ArialMT-80"/>
      <use x="177.673828" xlink:href="#ArialMT-65"/>
      <use x="244.373047" xlink:href="#ArialMT-67"/>
      <use x="316.589844" xlink:href="#ArialMT-84"/>
     </g>
    </g>
    <g id="PathCollection_6">
     <defs>
      <path d="M 0 3.872983 
C 1.027127 3.872983 2.012324 3.464901 2.738613 2.738613 
C 3.464901 2.012324 3.872983 1.027127 3.872983 0 
C 3.872983 -1.027127 3.464901 -2.012324 2.738613 -2.738613 
C 2.012324 -3.464901 1.027127 -3.872983 0 -3.872983 
C -1.027127 -3.872983 -2.012324 -3.464901 -2.738613 -2.738613 
C -3.464901 -2.012324 -3.872983 -1.027127 -3.872983 0 
C -3.872983 1.027127 -3.464901 2.012324 -2.738613 2.738613 
C -2.012324 3.464901 -1.027127 3.872983 0 3.872983 
z
" id="m0370a8d78f" style="stroke:#1f77b4;"/>
     </defs>
     <g>
      <use style="fill:#1f77b4;stroke:#1f77b4;" x="152.740625" xlink:href="#m0370a8d78f" y="38.478125"/>
     </g>
    </g>
    <g id="text_11">
     <!-- MODERATE -->
     <defs>
      <path d="M 4.828125 34.859375 
Q 4.828125 52.6875 14.390625 62.765625 
Q 23.96875 72.859375 39.109375 72.859375 
Q 49.03125 72.859375 56.984375 68.109375 
Q 64.9375 63.375 69.109375 54.90625 
Q 73.296875 46.4375 73.296875 35.6875 
Q 73.296875 24.8125 68.890625 16.21875 
Q 64.5 7.625 56.4375 3.203125 
Q 48.390625 -1.21875 39.0625 -1.21875 
Q 28.953125 -1.21875 20.984375 3.65625 
Q 13.03125 8.546875 8.921875 16.984375 
Q 4.828125 25.4375 4.828125 34.859375 
z
M 14.59375 34.71875 
Q 14.59375 21.78125 21.546875 14.328125 
Q 28.515625 6.890625 39.015625 6.890625 
Q 49.703125 6.890625 56.609375 14.40625 
Q 63.53125 21.921875 63.53125 35.75 
Q 63.53125 44.484375 60.578125 51 
Q 57.625 57.515625 51.921875 61.109375 
Q 46.234375 64.703125 39.15625 64.703125 
Q 29.109375 64.703125 21.84375 57.78125 
Q 14.59375 50.875 14.59375 34.71875 
z
" id="ArialMT-79"/>
      <path d="M 7.71875 0 
L 7.71875 71.578125 
L 32.375 71.578125 
Q 40.71875 71.578125 45.125 70.5625 
Q 51.265625 69.140625 55.609375 65.4375 
Q 61.28125 60.640625 64.078125 53.1875 
Q 66.890625 45.75 66.890625 36.1875 
Q 66.890625 28.03125 64.984375 21.734375 
Q 63.09375 15.4375 60.109375 11.296875 
Q 57.125 7.171875 53.578125 4.796875 
Q 50.046875 2.4375 45.046875 1.21875 
Q 40.046875 0 33.546875 0 
z
M 17.1875 8.453125 
L 32.46875 8.453125 
Q 39.546875 8.453125 43.578125 9.765625 
Q 47.609375 11.078125 50 13.484375 
Q 53.375 16.84375 55.25 22.53125 
Q 57.125 28.21875 57.125 36.328125 
Q 57.125 47.5625 53.4375 53.59375 
Q 49.75 59.625 44.484375 61.671875 
Q 40.671875 63.140625 32.234375 63.140625 
L 17.1875 63.140625 
z
" id="ArialMT-68"/>
      <path d="M 7.859375 0 
L 7.859375 71.578125 
L 39.59375 71.578125 
Q 49.171875 71.578125 54.140625 69.640625 
Q 59.125 67.71875 62.109375 62.828125 
Q 65.09375 57.953125 65.09375 52.046875 
Q 65.09375 44.4375 60.15625 39.203125 
Q 55.21875 33.984375 44.921875 32.5625 
Q 48.6875 30.765625 50.640625 29 
Q 54.78125 25.203125 58.5 19.484375 
L 70.953125 0 
L 59.03125 0 
L 49.5625 14.890625 
Q 45.40625 21.34375 42.71875 24.75 
Q 40.046875 28.171875 37.921875 29.53125 
Q 35.796875 30.90625 33.59375 31.453125 
Q 31.984375 31.78125 28.328125 31.78125 
L 17.328125 31.78125 
L 17.328125 0 
z
M 17.328125 39.984375 
L 37.703125 39.984375 
Q 44.1875 39.984375 47.84375 41.328125 
Q 51.515625 42.671875 53.421875 45.625 
Q 55.328125 48.578125 55.328125 52.046875 
Q 55.328125 57.125 51.640625 60.390625 
Q 47.953125 63.671875 39.984375 63.671875 
L 17.328125 63.671875 
z
" id="ArialMT-82"/>
     </defs>
     <g style="fill:#262626;" transform="translate(170.740625 41.103125)scale(0.1 -0.1)">
      <use xlink:href="#ArialMT-77"/>
      <use x="83.300781" xlink:href="#ArialMT-79"/>
      <use x="161.083984" xlink:href="#ArialMT-68"/>
      <use x="233.300781" xlink:href="#ArialMT-69"/>
      <use x="300" xlink:href="#ArialMT-82"/>
      <use x="372.216797" xlink:href="#ArialMT-65"/>
      <use x="438.806641" xlink:href="#ArialMT-84"/>
      <use x="499.890625" xlink:href="#ArialMT-69"/>
     </g>
    </g>
    <g id="PathCollection_7">
     <defs>
      <path d="M 0 3.872983 
C 1.027127 3.872983 2.012324 3.464901 2.738613 2.738613 
C 3.464901 2.012324 3.872983 1.027127 3.872983 0 
C 3.872983 -1.027127 3.464901 -2.012324 2.738613 -2.738613 
C 2.012324 -3.464901 1.027127 -3.872983 0 -3.872983 
C -1.027127 -3.872983 -2.012324 -3.464901 -2.738613 -2.738613 
C -3.464901 -2.012324 -3.872983 -1.027127 -3.872983 0 
C -3.872983 1.027127 -3.464901 2.012324 -2.738613 2.738613 
C -2.012324 3.464901 -1.027127 3.872983 0 3.872983 
z
" id="m4c680bf35e" style="stroke:#ff7f0e;"/>
     </defs>
     <g>
      <use style="fill:#ff7f0e;stroke:#ff7f0e;" x="152.740625" xlink:href="#m4c680bf35e" y="52.623438"/>
     </g>
    </g>
    <g id="text_12">
     <!-- HIGH -->
     <defs>
      <path d="M 8.015625 0 
L 8.015625 71.578125 
L 17.484375 71.578125 
L 17.484375 42.1875 
L 54.6875 42.1875 
L 54.6875 71.578125 
L 64.15625 71.578125 
L 64.15625 0 
L 54.6875 0 
L 54.6875 33.734375 
L 17.484375 33.734375 
L 17.484375 0 
z
" id="ArialMT-72"/>
      <path d="M 41.21875 28.078125 
L 41.21875 36.46875 
L 71.53125 36.53125 
L 71.53125 9.96875 
Q 64.546875 4.390625 57.125 1.578125 
Q 49.703125 -1.21875 41.890625 -1.21875 
Q 31.34375 -1.21875 22.71875 3.296875 
Q 14.109375 7.8125 9.71875 16.359375 
Q 5.328125 24.90625 5.328125 35.453125 
Q 5.328125 45.90625 9.6875 54.953125 
Q 14.0625 64.015625 22.265625 68.40625 
Q 30.46875 72.796875 41.15625 72.796875 
Q 48.921875 72.796875 55.1875 70.28125 
Q 61.46875 67.78125 65.03125 63.28125 
Q 68.609375 58.796875 70.453125 51.5625 
L 61.921875 49.21875 
Q 60.296875 54.6875 57.90625 57.8125 
Q 55.515625 60.9375 51.0625 62.8125 
Q 46.625 64.703125 41.21875 64.703125 
Q 34.71875 64.703125 29.984375 62.71875 
Q 25.25 60.75 22.34375 57.515625 
Q 19.4375 54.296875 17.828125 50.4375 
Q 15.09375 43.796875 15.09375 36.03125 
Q 15.09375 26.46875 18.390625 20.015625 
Q 21.6875 13.578125 27.984375 10.453125 
Q 34.28125 7.328125 41.359375 7.328125 
Q 47.515625 7.328125 53.375 9.6875 
Q 59.234375 12.0625 62.25 14.75 
L 62.25 28.078125 
z
" id="ArialMT-71"/>
     </defs>
     <g style="fill:#262626;" transform="translate(170.740625 55.248438)scale(0.1 -0.1)">
      <use xlink:href="#ArialMT-72"/>
      <use x="72.216797" xlink:href="#ArialMT-73"/>
      <use x="100" xlink:href="#ArialMT-71"/>
      <use x="177.783203" xlink:href="#ArialMT-72"/>
     </g>
    </g>
    <g id="PathCollection_8">
     <defs>
      <path d="M 0 3.872983 
C 1.027127 3.872983 2.012324 3.464901 2.738613 2.738613 
C 3.464901 2.012324 3.872983 1.027127 3.872983 0 
C 3.872983 -1.027127 3.464901 -2.012324 2.738613 -2.738613 
C 2.012324 -3.464901 1.027127 -3.872983 0 -3.872983 
C -1.027127 -3.872983 -2.012324 -3.464901 -2.738613 -2.738613 
C -3.464901 -2.012324 -3.872983 -1.027127 -3.872983 0 
C -3.872983 1.027127 -3.464901 2.012324 -2.738613 2.738613 
C -2.012324 3.464901 -1.027127 3.872983 0 3.872983 
z
" id="mfacc9702ad" style="stroke:#2ca02c;"/>
     </defs>
     <g>
      <use style="fill:#2ca02c;stroke:#2ca02c;" x="152.740625" xlink:href="#mfacc9702ad" y="66.76875"/>
     </g>
    </g>
    <g id="text_13">
     <!-- LOW -->
     <defs>
      <path d="M 20.21875 0 
L 1.21875 71.578125 
L 10.9375 71.578125 
L 21.828125 24.65625 
Q 23.578125 17.28125 24.859375 10.015625 
Q 27.59375 21.484375 28.078125 23.25 
L 41.703125 71.578125 
L 53.125 71.578125 
L 63.375 35.359375 
Q 67.234375 21.875 68.953125 10.015625 
Q 70.3125 16.796875 72.515625 25.59375 
L 83.734375 71.578125 
L 93.265625 71.578125 
L 73.640625 0 
L 64.5 0 
L 49.421875 54.546875 
Q 47.515625 61.375 47.171875 62.9375 
Q 46.046875 58.015625 45.0625 54.546875 
L 29.890625 0 
z
" id="ArialMT-87"/>
     </defs>
     <g style="fill:#262626;" transform="translate(170.740625 69.39375)scale(0.1 -0.1)">
      <use xlink:href="#ArialMT-76"/>
      <use x="55.615234" xlink:href="#ArialMT-79"/>
      <use x="133.398438" xlink:href="#ArialMT-87"/>
     </g>
    </g>
   </g>
  </g>
  <g id="axes_2">
   <g id="patch_8">
    <path d="M 279.44 273.389935 
L 472.8 273.389935 
L 472.8 10.8 
L 279.44 10.8 
z
" style="fill:#ffffff;"/>
   </g>
   <g id="matplotlib.axis_3">
    <g id="xtick_3">
     <g id="text_14">
      <!-- cas1 LacI4 -->
      <defs>
       <path id="ArialMT-32"/>
      </defs>
      <g style="fill:#262626;" transform="translate(263.174278 319.64762)rotate(-45)scale(0.1 -0.1)">
       <use xlink:href="#ArialMT-99"/>
       <use x="50" xlink:href="#ArialMT-97"/>
       <use x="105.615234" xlink:href="#ArialMT-115"/>
       <use x="155.615234" xlink:href="#ArialMT-49"/>
       <use x="211.230469" xlink:href="#ArialMT-32"/>
       <use x="239.013672" xlink:href="#ArialMT-76"/>
       <use x="294.628906" xlink:href="#ArialMT-97"/>
       <use x="350.244141" xlink:href="#ArialMT-99"/>
       <use x="400.244141" xlink:href="#ArialMT-73"/>
       <use x="428.027344" xlink:href="#ArialMT-52"/>
      </g>
     </g>
    </g>
    <g id="xtick_4">
     <g id="text_15">
      <!-- cas1 cas9B -->
      <g style="fill:#262626;" transform="translate(299.490729 322.003169)rotate(-45)scale(0.1 -0.1)">
       <use xlink:href="#ArialMT-99"/>
       <use x="50" xlink:href="#ArialMT-97"/>
       <use x="105.615234" xlink:href="#ArialMT-115"/>
       <use x="155.615234" xlink:href="#ArialMT-49"/>
       <use x="211.230469" xlink:href="#ArialMT-32"/>
       <use x="239.013672" xlink:href="#ArialMT-99"/>
       <use x="289.013672" xlink:href="#ArialMT-97"/>
       <use x="344.628906" xlink:href="#ArialMT-115"/>
       <use x="394.628906" xlink:href="#ArialMT-57"/>
       <use x="450.244141" xlink:href="#ArialMT-66"/>
      </g>
     </g>
    </g>
    <g id="xtick_5">
     <g id="text_16">
      <!-- cas2 cat -->
      <g style="fill:#262626;" transform="translate(348.382632 311.783267)rotate(-45)scale(0.1 -0.1)">
       <use xlink:href="#ArialMT-99"/>
       <use x="50" xlink:href="#ArialMT-97"/>
       <use x="105.615234" xlink:href="#ArialMT-115"/>
       <use x="155.615234" xlink:href="#ArialMT-50"/>
       <use x="211.230469" xlink:href="#ArialMT-32"/>
       <use x="239.013672" xlink:href="#ArialMT-99"/>
       <use x="289.013672" xlink:href="#ArialMT-97"/>
       <use x="344.628906" xlink:href="#ArialMT-116"/>
      </g>
     </g>
    </g>
    <g id="xtick_6">
     <g id="text_17">
      <!-- cas2 cas9B -->
      <g style="fill:#262626;" transform="translate(376.834729 322.003169)rotate(-45)scale(0.1 -0.1)">
       <use xlink:href="#ArialMT-99"/>
       <use x="50" xlink:href="#ArialMT-97"/>
       <use x="105.615234" xlink:href="#ArialMT-115"/>
       <use x="155.615234" xlink:href="#ArialMT-50"/>
       <use x="211.230469" xlink:href="#ArialMT-32"/>
       <use x="239.013672" xlink:href="#ArialMT-99"/>
       <use x="289.013672" xlink:href="#ArialMT-97"/>
       <use x="344.628906" xlink:href="#ArialMT-115"/>
       <use x="394.628906" xlink:href="#ArialMT-57"/>
       <use x="450.244141" xlink:href="#ArialMT-66"/>
      </g>
     </g>
    </g>
    <g id="xtick_7">
     <g id="text_18">
      <!-- cas2 lacI4 -->
      <g style="fill:#262626;" transform="translate(420.223352 317.286546)rotate(-45)scale(0.1 -0.1)">
       <use xlink:href="#ArialMT-99"/>
       <use x="50" xlink:href="#ArialMT-97"/>
       <use x="105.615234" xlink:href="#ArialMT-115"/>
       <use x="155.615234" xlink:href="#ArialMT-50"/>
       <use x="211.230469" xlink:href="#ArialMT-32"/>
       <use x="239.013672" xlink:href="#ArialMT-108"/>
       <use x="261.230469" xlink:href="#ArialMT-97"/>
       <use x="316.845703" xlink:href="#ArialMT-99"/>
       <use x="366.845703" xlink:href="#ArialMT-73"/>
       <use x="394.628906" xlink:href="#ArialMT-52"/>
      </g>
     </g>
    </g>
    <g id="text_19">
     <!-- Element -->
     <g style="fill:#262626;" transform="translate(357.778594 334.566356)scale(0.1 -0.1)">
      <use xlink:href="#ArialMT-69"/>
      <use x="66.699219" xlink:href="#ArialMT-108"/>
      <use x="88.916016" xlink:href="#ArialMT-101"/>
      <use x="144.53125" xlink:href="#ArialMT-109"/>
      <use x="227.832031" xlink:href="#ArialMT-101"/>
      <use x="283.447266" xlink:href="#ArialMT-110"/>
      <use x="339.0625" xlink:href="#ArialMT-116"/>
     </g>
    </g>
   </g>
   <g id="matplotlib.axis_4">
    <g id="ytick_6">
     <g id="text_20">
      <!-- 0 -->
      <g style="fill:#262626;" transform="translate(266.879062 270.556491)scale(0.1 -0.1)">
       <use xlink:href="#ArialMT-48"/>
      </g>
     </g>
    </g>
    <g id="ytick_7">
     <g id="text_21">
      <!-- 10 -->
      <g style="fill:#262626;" transform="translate(261.318125 233.931657)scale(0.1 -0.1)">
       <use xlink:href="#ArialMT-49"/>
       <use x="55.615234" xlink:href="#ArialMT-48"/>
      </g>
     </g>
    </g>
    <g id="ytick_8">
     <g id="text_22">
      <!-- 20 -->
      <g style="fill:#262626;" transform="translate(261.318125 197.306824)scale(0.1 -0.1)">
       <use xlink:href="#ArialMT-50"/>
       <use x="55.615234" xlink:href="#ArialMT-48"/>
      </g>
     </g>
    </g>
    <g id="ytick_9">
     <g id="text_23">
      <!-- 30 -->
      <defs>
       <path d="M 4.203125 18.890625 
L 12.984375 20.0625 
Q 14.5 12.59375 18.140625 9.296875 
Q 21.78125 6 27 6 
Q 33.203125 6 37.46875 10.296875 
Q 41.75 14.59375 41.75 20.953125 
Q 41.75 27 37.796875 30.921875 
Q 33.84375 34.859375 27.734375 34.859375 
Q 25.25 34.859375 21.53125 33.890625 
L 22.515625 41.609375 
Q 23.390625 41.5 23.921875 41.5 
Q 29.546875 41.5 34.03125 44.421875 
Q 38.53125 47.359375 38.53125 53.46875 
Q 38.53125 58.296875 35.25 61.46875 
Q 31.984375 64.65625 26.8125 64.65625 
Q 21.6875 64.65625 18.265625 61.421875 
Q 14.84375 58.203125 13.875 51.765625 
L 5.078125 53.328125 
Q 6.6875 62.15625 12.390625 67.015625 
Q 18.109375 71.875 26.609375 71.875 
Q 32.46875 71.875 37.390625 69.359375 
Q 42.328125 66.84375 44.9375 62.5 
Q 47.5625 58.15625 47.5625 53.265625 
Q 47.5625 48.640625 45.0625 44.828125 
Q 42.578125 41.015625 37.703125 38.765625 
Q 44.046875 37.3125 47.5625 32.6875 
Q 51.078125 28.078125 51.078125 21.140625 
Q 51.078125 11.765625 44.234375 5.25 
Q 37.40625 -1.265625 26.953125 -1.265625 
Q 17.53125 -1.265625 11.296875 4.34375 
Q 5.078125 9.96875 4.203125 18.890625 
z
" id="ArialMT-51"/>
      </defs>
      <g style="fill:#262626;" transform="translate(261.318125 160.68199)scale(0.1 -0.1)">
       <use xlink:href="#ArialMT-51"/>
       <use x="55.615234" xlink:href="#ArialMT-48"/>
      </g>
     </g>
    </g>
    <g id="ytick_10">
     <g id="text_24">
      <!-- 40 -->
      <g style="fill:#262626;" transform="translate(261.318125 124.057156)scale(0.1 -0.1)">
       <use xlink:href="#ArialMT-52"/>
       <use x="55.615234" xlink:href="#ArialMT-48"/>
      </g>
     </g>
    </g>
    <g id="ytick_11">
     <g id="text_25">
      <!-- 50 -->
      <g style="fill:#262626;" transform="translate(261.318125 87.432323)scale(0.1 -0.1)">
       <use xlink:href="#ArialMT-53"/>
       <use x="55.615234" xlink:href="#ArialMT-48"/>
      </g>
     </g>
    </g>
    <g id="ytick_12">
     <g id="text_26">
      <!-- 60 -->
      <defs>
       <path d="M 49.75 54.046875 
L 41.015625 53.375 
Q 39.84375 58.546875 37.703125 60.890625 
Q 34.125 64.65625 28.90625 64.65625 
Q 24.703125 64.65625 21.53125 62.3125 
Q 17.390625 59.28125 14.984375 53.46875 
Q 12.59375 47.65625 12.5 36.921875 
Q 15.671875 41.75 20.265625 44.09375 
Q 24.859375 46.4375 29.890625 46.4375 
Q 38.671875 46.4375 44.84375 39.96875 
Q 51.03125 33.5 51.03125 23.25 
Q 51.03125 16.5 48.125 10.71875 
Q 45.21875 4.9375 40.140625 1.859375 
Q 35.0625 -1.21875 28.609375 -1.21875 
Q 17.625 -1.21875 10.6875 6.859375 
Q 3.765625 14.9375 3.765625 33.5 
Q 3.765625 54.25 11.421875 63.671875 
Q 18.109375 71.875 29.4375 71.875 
Q 37.890625 71.875 43.28125 67.140625 
Q 48.6875 62.40625 49.75 54.046875 
z
M 13.875 23.1875 
Q 13.875 18.65625 15.796875 14.5 
Q 17.71875 10.359375 21.1875 8.171875 
Q 24.65625 6 28.46875 6 
Q 34.03125 6 38.03125 10.484375 
Q 42.046875 14.984375 42.046875 22.703125 
Q 42.046875 30.125 38.078125 34.390625 
Q 34.125 38.671875 28.125 38.671875 
Q 22.171875 38.671875 18.015625 34.390625 
Q 13.875 30.125 13.875 23.1875 
z
" id="ArialMT-54"/>
      </defs>
      <g style="fill:#262626;" transform="translate(261.318125 50.807489)scale(0.1 -0.1)">
       <use xlink:href="#ArialMT-54"/>
       <use x="55.615234" xlink:href="#ArialMT-48"/>
      </g>
     </g>
    </g>
    <g id="text_27">
     <!-- Fraction -->
     <g style="fill:#262626;" transform="translate(255.330625 160.155124)rotate(-90)scale(0.1 -0.1)">
      <use xlink:href="#ArialMT-70"/>
      <use x="61.083984" xlink:href="#ArialMT-114"/>
      <use x="94.384766" xlink:href="#ArialMT-97"/>
      <use x="150" xlink:href="#ArialMT-99"/>
      <use x="200" xlink:href="#ArialMT-116"/>
      <use x="227.783203" xlink:href="#ArialMT-105"/>
      <use x="250" xlink:href="#ArialMT-111"/>
      <use x="305.615234" xlink:href="#ArialMT-110"/>
     </g>
    </g>
   </g>
   <g id="PathCollection_9"/>
   <g id="PathCollection_10"/>
   <g id="PathCollection_11"/>
   <g id="patch_9">
    <path d="M 279.44 273.389935 
L 279.44 10.8 
" style="fill:none;stroke:#cccccc;stroke-linecap:square;stroke-linejoin:miter;stroke-width:0.8;"/>
   </g>
   <g id="patch_10">
    <path d="M 472.8 273.389935 
L 472.8 10.8 
" style="fill:none;stroke:#cccccc;stroke-linecap:square;stroke-linejoin:miter;stroke-width:0.8;"/>
   </g>
   <g id="patch_11">
    <path d="M 279.44 273.389935 
L 472.8 273.389935 
" style="fill:none;stroke:#cccccc;stroke-linecap:square;stroke-linejoin:miter;stroke-width:0.8;"/>
   </g>
   <g id="patch_12">
    <path d="M 279.44 10.8 
L 472.8 10.8 
" style="fill:none;stroke:#cccccc;stroke-linecap:square;stroke-linejoin:miter;stroke-width:0.8;"/>
   </g>
   <g id="PathCollection_12">
    <defs>
     <path d="M 0 2.5 
C 0.663008 2.5 1.29895 2.236584 1.767767 1.767767 
C 2.236584 1.29895 2.5 0.663008 2.5 0 
C 2.5 -0.663008 2.236584 -1.29895 1.767767 -1.767767 
C 1.29895 -2.236584 0.663008 -2.5 0 -2.5 
C -0.663008 -2.5 -1.29895 -2.236584 -1.767767 -1.767767 
C -2.236584 -1.29895 -2.5 -0.663008 -2.5 0 
C -2.5 0.663008 -2.236584 1.29895 -1.767767 1.767767 
C -1.29895 2.236584 -0.663008 2.5 0 2.5 
z
" id="mc4bc2b483b"/>
    </defs>
    <g clip-path="url(#p9f375515b2)">
     <use style="fill:#1f77b4;" x="298.776" xlink:href="#mc4bc2b483b" y="250.81957"/>
    </g>
   </g>
   <g id="PathCollection_13">
    <defs>
     <path d="M 0 2.5 
C 0.663008 2.5 1.29895 2.236584 1.767767 1.767767 
C 2.236584 1.29895 2.5 0.663008 2.5 0 
C 2.5 -0.663008 2.236584 -1.29895 1.767767 -1.767767 
C 1.29895 -2.236584 0.663008 -2.5 0 -2.5 
C -0.663008 -2.5 -1.29895 -2.236584 -1.767767 -1.767767 
C -2.236584 -1.29895 -2.5 -0.663008 -2.5 0 
C -2.5 0.663008 -2.236584 1.29895 -1.767767 1.767767 
C -1.29895 2.236584 -0.663008 2.5 0 2.5 
z
" id="C2_0_d7d7811f83"/>
    </defs>
    <g clip-path="url(#p9f375515b2)">
     <use style="fill:#1f77b4;" x="337.448" xlink:href="#C2_0_d7d7811f83" y="260.318524"/>
    </g>
    <g clip-path="url(#p9f375515b2)">
     <use style="fill:#ff7f0e;" x="336.401637" xlink:href="#C2_0_d7d7811f83" y="255.650317"/>
    </g>
   </g>
   <g id="PathCollection_14">
    <defs>
     <path d="M 0 2.5 
C 0.663008 2.5 1.29895 2.236584 1.767767 1.767767 
C 2.236584 1.29895 2.5 0.663008 2.5 0 
C 2.5 -0.663008 2.236584 -1.29895 1.767767 -1.767767 
C 1.29895 -2.236584 0.663008 -2.5 0 -2.5 
C -0.663008 -2.5 -1.29895 -2.236584 -1.767767 -1.767767 
C -2.236584 -1.29895 -2.5 -0.663008 -2.5 0 
C -2.5 0.663008 -2.236584 1.29895 -1.767767 1.767767 
C -1.29895 2.236584 -0.663008 2.5 0 2.5 
z
" id="C3_0_cda8f010fd"/>
    </defs>
    <g clip-path="url(#p9f375515b2)">
     <use style="fill:#2ca02c;" x="376.12" xlink:href="#C3_0_cda8f010fd" y="261.386007"/>
    </g>
    <g clip-path="url(#p9f375515b2)">
     <use style="fill:#1f77b4;" x="370.764841" xlink:href="#C3_0_cda8f010fd" y="259.015664"/>
    </g>
    <g clip-path="url(#p9f375515b2)">
     <use style="fill:#2ca02c;" x="376.12" xlink:href="#C3_0_cda8f010fd" y="254.171698"/>
    </g>
   </g>
   <g id="PathCollection_15">
    <defs>
     <path d="M 0 2.5 
C 0.663008 2.5 1.29895 2.236584 1.767767 1.767767 
C 2.236584 1.29895 2.5 0.663008 2.5 0 
C 2.5 -0.663008 2.236584 -1.29895 1.767767 -1.767767 
C 1.29895 -2.236584 0.663008 -2.5 0 -2.5 
C -0.663008 -2.5 -1.29895 -2.236584 -1.767767 -1.767767 
C -2.236584 -1.29895 -2.5 -0.663008 -2.5 0 
C -2.5 0.663008 -2.236584 1.29895 -1.767767 1.767767 
C -1.29895 2.236584 -0.663008 2.5 0 2.5 
z
" id="m9286905f2c"/>
    </defs>
    <g clip-path="url(#p9f375515b2)">
     <use style="fill:#2ca02c;" x="414.792" xlink:href="#m9286905f2c" y="259.652618"/>
    </g>
   </g>
   <g id="PathCollection_16">
    <g clip-path="url(#p9f375515b2)">
     <use style="fill:#1f77b4;" x="453.464" xlink:href="#mc4bc2b483b" y="22.812036"/>
    </g>
   </g>
   <g id="legend_2">
    <g id="patch_13">
     <path d="M 286.44 75.38125 
L 375.099375 75.38125 
Q 377.099375 75.38125 377.099375 73.38125 
L 377.099375 17.8 
Q 377.099375 15.8 375.099375 15.8 
L 286.44 15.8 
Q 284.44 15.8 284.44 17.8 
L 284.44 73.38125 
Q 284.44 75.38125 286.44 75.38125 
z
" style="fill:#ffffff;opacity:0.8;stroke:#cccccc;stroke-linejoin:miter;"/>
    </g>
    <g id="text_28">
     <!-- IMPACT -->
     <g style="fill:#262626;" transform="translate(311.886094 26.957813)scale(0.1 -0.1)">
      <use xlink:href="#ArialMT-73"/>
      <use x="27.783203" xlink:href="#ArialMT-77"/>
      <use x="111.083984" xlink:href="#ArialMT-80"/>
      <use x="177.673828" xlink:href="#ArialMT-65"/>
      <use x="244.373047" xlink:href="#ArialMT-67"/>
      <use x="316.589844" xlink:href="#ArialMT-84"/>
     </g>
    </g>
    <g id="PathCollection_17">
     <g>
      <use style="fill:#1f77b4;stroke:#1f77b4;" x="298.44" xlink:href="#m0370a8d78f" y="38.478125"/>
     </g>
    </g>
    <g id="text_29">
     <!-- MODERATE -->
     <g style="fill:#262626;" transform="translate(316.44 41.103125)scale(0.1 -0.1)">
      <use xlink:href="#ArialMT-77"/>
      <use x="83.300781" xlink:href="#ArialMT-79"/>
      <use x="161.083984" xlink:href="#ArialMT-68"/>
      <use x="233.300781" xlink:href="#ArialMT-69"/>
      <use x="300" xlink:href="#ArialMT-82"/>
      <use x="372.216797" xlink:href="#ArialMT-65"/>
      <use x="438.806641" xlink:href="#ArialMT-84"/>
      <use x="499.890625" xlink:href="#ArialMT-69"/>
     </g>
    </g>
    <g id="PathCollection_18">
     <g>
      <use style="fill:#ff7f0e;stroke:#ff7f0e;" x="298.44" xlink:href="#m4c680bf35e" y="52.623438"/>
     </g>
    </g>
    <g id="text_30">
     <!-- HIGH -->
     <g style="fill:#262626;" transform="translate(316.44 55.248438)scale(0.1 -0.1)">
      <use xlink:href="#ArialMT-72"/>
      <use x="72.216797" xlink:href="#ArialMT-73"/>
      <use x="100" xlink:href="#ArialMT-71"/>
      <use x="177.783203" xlink:href="#ArialMT-72"/>
     </g>
    </g>
    <g id="PathCollection_19">
     <g>
      <use style="fill:#2ca02c;stroke:#2ca02c;" x="298.44" xlink:href="#mfacc9702ad" y="66.76875"/>
     </g>
    </g>
    <g id="text_31">
     <!-- LOW -->
     <g style="fill:#262626;" transform="translate(316.44 69.39375)scale(0.1 -0.1)">
      <use xlink:href="#ArialMT-76"/>
      <use x="55.615234" xlink:href="#ArialMT-79"/>
      <use x="133.398438" xlink:href="#ArialMT-87"/>
     </g>
    </g>
   </g>
  </g>
  <g id="axes_3">
   <g id="patch_14">
    <path d="M 515.84 273.389935 
L 709.2 273.389935 
L 709.2 10.8 
L 515.84 10.8 
z
" style="fill:#ffffff;"/>
   </g>
   <g id="matplotlib.axis_5">
    <g id="xtick_8">
     <g id="text_32">
      <!-- cas1 CreC -->
      <g style="fill:#262626;" transform="translate(494.846307 318.85102)rotate(-45)scale(0.1 -0.1)">
       <use xlink:href="#ArialMT-99"/>
       <use x="50" xlink:href="#ArialMT-97"/>
       <use x="105.615234" xlink:href="#ArialMT-115"/>
       <use x="155.615234" xlink:href="#ArialMT-49"/>
       <use x="211.230469" xlink:href="#ArialMT-32"/>
       <use x="239.013672" xlink:href="#ArialMT-67"/>
       <use x="311.230469" xlink:href="#ArialMT-114"/>
       <use x="344.53125" xlink:href="#ArialMT-101"/>
       <use x="400.146484" xlink:href="#ArialMT-67"/>
      </g>
     </g>
    </g>
    <g id="xtick_9">
     <g id="text_33">
      <!-- cas1 CI MPN -->
      <defs>
       <path d="M 7.625 0 
L 7.625 71.578125 
L 17.328125 71.578125 
L 54.9375 15.375 
L 54.9375 71.578125 
L 64.015625 71.578125 
L 64.015625 0 
L 54.296875 0 
L 16.703125 56.25 
L 16.703125 0 
z
" id="ArialMT-78"/>
      </defs>
      <g style="fill:#262626;" transform="translate(514.220322 327.099862)rotate(-45)scale(0.1 -0.1)">
       <use xlink:href="#ArialMT-99"/>
       <use x="50" xlink:href="#ArialMT-97"/>
       <use x="105.615234" xlink:href="#ArialMT-115"/>
       <use x="155.615234" xlink:href="#ArialMT-49"/>
       <use x="211.230469" xlink:href="#ArialMT-32"/>
       <use x="239.013672" xlink:href="#ArialMT-67"/>
       <use x="311.230469" xlink:href="#ArialMT-73"/>
       <use x="339.013672" xlink:href="#ArialMT-32"/>
       <use x="366.796875" xlink:href="#ArialMT-77"/>
       <use x="450.097656" xlink:href="#ArialMT-80"/>
       <use x="516.796875" xlink:href="#ArialMT-78"/>
      </g>
     </g>
    </g>
    <g id="xtick_10">
     <g id="text_34">
      <!-- cas1 tetR MPN -->
      <g style="fill:#262626;" transform="translate(535.946571 332.99647)rotate(-45)scale(0.1 -0.1)">
       <use xlink:href="#ArialMT-99"/>
       <use x="50" xlink:href="#ArialMT-97"/>
       <use x="105.615234" xlink:href="#ArialMT-115"/>
       <use x="155.615234" xlink:href="#ArialMT-49"/>
       <use x="211.230469" xlink:href="#ArialMT-32"/>
       <use x="239.013672" xlink:href="#ArialMT-116"/>
       <use x="266.796875" xlink:href="#ArialMT-101"/>
       <use x="322.412109" xlink:href="#ArialMT-116"/>
       <use x="350.195312" xlink:href="#ArialMT-82"/>
       <use x="422.412109" xlink:href="#ArialMT-32"/>
       <use x="450.195312" xlink:href="#ArialMT-77"/>
       <use x="533.496094" xlink:href="#ArialMT-80"/>
       <use x="600.195312" xlink:href="#ArialMT-78"/>
      </g>
     </g>
    </g>
    <g id="xtick_11">
     <g id="text_35">
      <!-- cas2 cas9B -->
      <g style="fill:#262626;" transform="translate(574.562729 322.003169)rotate(-45)scale(0.1 -0.1)">
       <use xlink:href="#ArialMT-99"/>
       <use x="50" xlink:href="#ArialMT-97"/>
       <use x="105.615234" xlink:href="#ArialMT-115"/>
       <use x="155.615234" xlink:href="#ArialMT-50"/>
       <use x="211.230469" xlink:href="#ArialMT-32"/>
       <use x="239.013672" xlink:href="#ArialMT-99"/>
       <use x="289.013672" xlink:href="#ArialMT-97"/>
       <use x="344.628906" xlink:href="#ArialMT-115"/>
       <use x="394.628906" xlink:href="#ArialMT-57"/>
       <use x="450.244141" xlink:href="#ArialMT-66"/>
      </g>
     </g>
    </g>
    <g id="xtick_12">
     <g id="text_36">
      <!-- cas1 cas9B -->
      <g style="fill:#262626;" transform="translate(602.185586 322.003169)rotate(-45)scale(0.1 -0.1)">
       <use xlink:href="#ArialMT-99"/>
       <use x="50" xlink:href="#ArialMT-97"/>
       <use x="105.615234" xlink:href="#ArialMT-115"/>
       <use x="155.615234" xlink:href="#ArialMT-49"/>
       <use x="211.230469" xlink:href="#ArialMT-32"/>
       <use x="239.013672" xlink:href="#ArialMT-99"/>
       <use x="289.013672" xlink:href="#ArialMT-97"/>
       <use x="344.628906" xlink:href="#ArialMT-115"/>
       <use x="394.628906" xlink:href="#ArialMT-57"/>
       <use x="450.244141" xlink:href="#ArialMT-66"/>
      </g>
     </g>
    </g>
    <g id="xtick_13">
     <g id="text_37">
      <!-- cas1 cat -->
      <g style="fill:#262626;" transform="translate(640.028346 311.783267)rotate(-45)scale(0.1 -0.1)">
       <use xlink:href="#ArialMT-99"/>
       <use x="50" xlink:href="#ArialMT-97"/>
       <use x="105.615234" xlink:href="#ArialMT-115"/>
       <use x="155.615234" xlink:href="#ArialMT-49"/>
       <use x="211.230469" xlink:href="#ArialMT-32"/>
       <use x="239.013672" xlink:href="#ArialMT-99"/>
       <use x="289.013672" xlink:href="#ArialMT-97"/>
       <use x="344.628906" xlink:href="#ArialMT-116"/>
      </g>
     </g>
    </g>
    <g id="xtick_14">
     <g id="text_38">
      <!-- cas2 LacI4 -->
      <g style="fill:#262626;" transform="translate(659.78685 319.64762)rotate(-45)scale(0.1 -0.1)">
       <use xlink:href="#ArialMT-99"/>
       <use x="50" xlink:href="#ArialMT-97"/>
       <use x="105.615234" xlink:href="#ArialMT-115"/>
       <use x="155.615234" xlink:href="#ArialMT-50"/>
       <use x="211.230469" xlink:href="#ArialMT-32"/>
       <use x="239.013672" xlink:href="#ArialMT-76"/>
       <use x="294.628906" xlink:href="#ArialMT-97"/>
       <use x="350.244141" xlink:href="#ArialMT-99"/>
       <use x="400.244141" xlink:href="#ArialMT-73"/>
       <use x="428.027344" xlink:href="#ArialMT-52"/>
      </g>
     </g>
    </g>
    <g id="text_39">
     <!-- Element -->
     <g style="fill:#262626;" transform="translate(594.178594 345.559657)scale(0.1 -0.1)">
      <use xlink:href="#ArialMT-69"/>
      <use x="66.699219" xlink:href="#ArialMT-108"/>
      <use x="88.916016" xlink:href="#ArialMT-101"/>
      <use x="144.53125" xlink:href="#ArialMT-109"/>
      <use x="227.832031" xlink:href="#ArialMT-101"/>
      <use x="283.447266" xlink:href="#ArialMT-110"/>
      <use x="339.0625" xlink:href="#ArialMT-116"/>
     </g>
    </g>
   </g>
   <g id="matplotlib.axis_6">
    <g id="ytick_13">
     <g id="text_40">
      <!-- 5 -->
      <g style="fill:#262626;" transform="translate(503.279062 223.368629)scale(0.1 -0.1)">
       <use xlink:href="#ArialMT-53"/>
      </g>
     </g>
    </g>
    <g id="ytick_14">
     <g id="text_41">
      <!-- 10 -->
      <g style="fill:#262626;" transform="translate(497.718125 166.184488)scale(0.1 -0.1)">
       <use xlink:href="#ArialMT-49"/>
       <use x="55.615234" xlink:href="#ArialMT-48"/>
      </g>
     </g>
    </g>
    <g id="ytick_15">
     <g id="text_42">
      <!-- 15 -->
      <g style="fill:#262626;" transform="translate(497.718125 109.000347)scale(0.1 -0.1)">
       <use xlink:href="#ArialMT-49"/>
       <use x="55.615234" xlink:href="#ArialMT-53"/>
      </g>
     </g>
    </g>
    <g id="ytick_16">
     <g id="text_43">
      <!-- 20 -->
      <g style="fill:#262626;" transform="translate(497.718125 51.816206)scale(0.1 -0.1)">
       <use xlink:href="#ArialMT-50"/>
       <use x="55.615234" xlink:href="#ArialMT-48"/>
      </g>
     </g>
    </g>
    <g id="text_44">
     <!-- Fraction -->
     <g style="fill:#262626;" transform="translate(491.730625 160.155124)rotate(-90)scale(0.1 -0.1)">
      <use xlink:href="#ArialMT-70"/>
      <use x="61.083984" xlink:href="#ArialMT-114"/>
      <use x="94.384766" xlink:href="#ArialMT-97"/>
      <use x="150" xlink:href="#ArialMT-99"/>
      <use x="200" xlink:href="#ArialMT-116"/>
      <use x="227.783203" xlink:href="#ArialMT-105"/>
      <use x="250" xlink:href="#ArialMT-111"/>
      <use x="305.615234" xlink:href="#ArialMT-110"/>
     </g>
    </g>
   </g>
   <g id="PathCollection_20"/>
   <g id="PathCollection_21"/>
   <g id="PathCollection_22"/>
   <g id="patch_15">
    <path d="M 515.84 273.389935 
L 515.84 10.8 
" style="fill:none;stroke:#cccccc;stroke-linecap:square;stroke-linejoin:miter;stroke-width:0.8;"/>
   </g>
   <g id="patch_16">
    <path d="M 709.2 273.389935 
L 709.2 10.8 
" style="fill:none;stroke:#cccccc;stroke-linecap:square;stroke-linejoin:miter;stroke-width:0.8;"/>
   </g>
   <g id="patch_17">
    <path d="M 515.84 273.389935 
L 709.2 273.389935 
" style="fill:none;stroke:#cccccc;stroke-linecap:square;stroke-linejoin:miter;stroke-width:0.8;"/>
   </g>
   <g id="patch_18">
    <path d="M 515.84 10.8 
L 709.2 10.8 
" style="fill:none;stroke:#cccccc;stroke-linecap:square;stroke-linejoin:miter;stroke-width:0.8;"/>
   </g>
   <g id="PathCollection_23">
    <defs>
     <path d="M 0 2.5 
C 0.663008 2.5 1.29895 2.236584 1.767767 1.767767 
C 2.236584 1.29895 2.5 0.663008 2.5 0 
C 2.5 -0.663008 2.236584 -1.29895 1.767767 -1.767767 
C 1.29895 -2.236584 0.663008 -2.5 0 -2.5 
C -0.663008 -2.5 -1.29895 -2.236584 -1.767767 -1.767767 
C -2.236584 -1.29895 -2.5 -0.663008 -2.5 0 
C -2.5 0.663008 -2.236584 1.29895 -1.767767 1.767767 
C -1.29895 2.236584 -0.663008 2.5 0 2.5 
z
" id="C4_0_66806ed0a7"/>
    </defs>
    <g clip-path="url(#p1d010cf406)">
     <use style="fill:#1f77b4;" x="529.651429" xlink:href="#C4_0_66806ed0a7" y="258.452685"/>
    </g>
    <g clip-path="url(#p1d010cf406)">
     <use style="fill:#1f77b4;" x="523.919861" xlink:href="#C4_0_66806ed0a7" y="256.671802"/>
    </g>
    <g clip-path="url(#p1d010cf406)">
     <use style="fill:#1f77b4;" x="529.651429" xlink:href="#C4_0_66806ed0a7" y="253.633398"/>
    </g>
    <g clip-path="url(#p1d010cf406)">
     <use style="fill:#1f77b4;" x="535.785187" xlink:href="#C4_0_66806ed0a7" y="253.02239"/>
    </g>
    <g clip-path="url(#p1d010cf406)">
     <use style="fill:#1f77b4;" x="524.813325" xlink:href="#C4_0_66806ed0a7" y="250.682305"/>
    </g>
   </g>
   <g id="PathCollection_24">
    <defs>
     <path d="M 0 2.5 
C 0.663008 2.5 1.29895 2.236584 1.767767 1.767767 
C 2.236584 1.29895 2.5 0.663008 2.5 0 
C 2.5 -0.663008 2.236584 -1.29895 1.767767 -1.767767 
C 1.29895 -2.236584 0.663008 -2.5 0 -2.5 
C -0.663008 -2.5 -1.29895 -2.236584 -1.767767 -1.767767 
C -2.236584 -1.29895 -2.5 -0.663008 -2.5 0 
C -2.5 0.663008 -2.236584 1.29895 -1.767767 1.767767 
C -1.29895 2.236584 -0.663008 2.5 0 2.5 
z
" id="C5_0_1ff1021017"/>
    </defs>
    <g clip-path="url(#p1d010cf406)">
     <use style="fill:#ff7f0e;" x="557.274286" xlink:href="#C5_0_1ff1021017" y="259.732413"/>
    </g>
    <g clip-path="url(#p1d010cf406)">
     <use style="fill:#1f77b4;" x="551.08989" xlink:href="#C5_0_1ff1021017" y="259.645336"/>
    </g>
    <g clip-path="url(#p1d010cf406)">
     <use style="fill:#1f77b4;" x="563.455501" xlink:href="#C5_0_1ff1021017" y="259.557374"/>
    </g>
    <g clip-path="url(#p1d010cf406)">
     <use style="fill:#1f77b4;" x="546.225143" xlink:href="#C5_0_1ff1021017" y="258.723605"/>
    </g>
    <g clip-path="url(#p1d010cf406)">
     <use style="fill:#1f77b4;" x="568.323429" xlink:href="#C5_0_1ff1021017" y="258.626011"/>
    </g>
    <g clip-path="url(#p1d010cf406)">
     <use style="fill:#1f77b4;" x="554.789436" xlink:href="#C5_0_1ff1021017" y="255.394943"/>
    </g>
    <g clip-path="url(#p1d010cf406)">
     <use style="fill:#ff7f0e;" x="557.274286" xlink:href="#C5_0_1ff1021017" y="247.773452"/>
    </g>
   </g>
   <g id="PathCollection_25">
    <defs>
     <path d="M 0 2.5 
C 0.663008 2.5 1.29895 2.236584 1.767767 1.767767 
C 2.236584 1.29895 2.5 0.663008 2.5 0 
C 2.5 -0.663008 2.236584 -1.29895 1.767767 -1.767767 
C 1.29895 -2.236584 0.663008 -2.5 0 -2.5 
C -0.663008 -2.5 -1.29895 -2.236584 -1.767767 -1.767767 
C -2.236584 -1.29895 -2.5 -0.663008 -2.5 0 
C -2.5 0.663008 -2.236584 1.29895 -1.767767 1.767767 
C -1.29895 2.236584 -0.663008 2.5 0 2.5 
z
" id="C6_0_3254f76663"/>
    </defs>
    <g clip-path="url(#p1d010cf406)">
     <use style="fill:#2ca02c;" x="584.897143" xlink:href="#C6_0_3254f76663" y="258.674938"/>
    </g>
    <g clip-path="url(#p1d010cf406)">
     <use style="fill:#2ca02c;" x="578.723919" xlink:href="#C6_0_3254f76663" y="258.377395"/>
    </g>
    <g clip-path="url(#p1d010cf406)">
     <use style="fill:#1f77b4;" x="590.798169" xlink:href="#C6_0_3254f76663" y="257.255194"/>
    </g>
    <g clip-path="url(#p1d010cf406)">
     <use style="fill:#1f77b4;" x="584.897143" xlink:href="#C6_0_3254f76663" y="252.896329"/>
    </g>
   </g>
   <g id="PathCollection_26">
    <defs>
     <path d="M 0 2.5 
C 0.663008 2.5 1.29895 2.236584 1.767767 1.767767 
C 2.236584 1.29895 2.5 0.663008 2.5 0 
C 2.5 -0.663008 2.236584 -1.29895 1.767767 -1.767767 
C 1.29895 -2.236584 0.663008 -2.5 0 -2.5 
C -0.663008 -2.5 -1.29895 -2.236584 -1.767767 -1.767767 
C -2.236584 -1.29895 -2.5 -0.663008 -2.5 0 
C -2.5 0.663008 -2.236584 1.29895 -1.767767 1.767767 
C -1.29895 2.236584 -0.663008 2.5 0 2.5 
z
" id="C7_0_5984f1e110"/>
    </defs>
    <g clip-path="url(#p1d010cf406)">
     <use style="fill:#1f77b4;" x="612.52" xlink:href="#C7_0_5984f1e110" y="258.963111"/>
    </g>
    <g clip-path="url(#p1d010cf406)">
     <use style="fill:#1f77b4;" x="612.52" xlink:href="#C7_0_5984f1e110" y="22.822135"/>
    </g>
   </g>
   <g id="PathCollection_27">
    <defs>
     <path d="M 0 2.5 
C 0.663008 2.5 1.29895 2.236584 1.767767 1.767767 
C 2.236584 1.29895 2.5 0.663008 2.5 0 
C 2.5 -0.663008 2.236584 -1.29895 1.767767 -1.767767 
C 1.29895 -2.236584 0.663008 -2.5 0 -2.5 
C -0.663008 -2.5 -1.29895 -2.236584 -1.767767 -1.767767 
C -2.236584 -1.29895 -2.5 -0.663008 -2.5 0 
C -2.5 0.663008 -2.236584 1.29895 -1.767767 1.767767 
C -1.29895 2.236584 -0.663008 2.5 0 2.5 
z
" id="C8_0_32424e3bec"/>
    </defs>
    <g clip-path="url(#p1d010cf406)">
     <use style="fill:#1f77b4;" x="640.142857" xlink:href="#C8_0_32424e3bec" y="259.645336"/>
    </g>
    <g clip-path="url(#p1d010cf406)">
     <use style="fill:#1f77b4;" x="633.967222" xlink:href="#C8_0_32424e3bec" y="259.378743"/>
    </g>
    <g clip-path="url(#p1d010cf406)">
     <use style="fill:#1f77b4;" x="644.074585" xlink:href="#C8_0_32424e3bec" y="255.988858"/>
    </g>
    <g clip-path="url(#p1d010cf406)">
     <use style="fill:#ff7f0e;" x="640.142857" xlink:href="#C8_0_32424e3bec" y="249.07916"/>
    </g>
    <g clip-path="url(#p1d010cf406)">
     <use style="fill:#1f77b4;" x="634.666651" xlink:href="#C8_0_32424e3bec" y="246.876947"/>
    </g>
   </g>
   <g id="PathCollection_28">
    <defs>
     <path d="M 0 2.5 
C 0.663008 2.5 1.29895 2.236584 1.767767 1.767767 
C 2.236584 1.29895 2.5 0.663008 2.5 0 
C 2.5 -0.663008 2.236584 -1.29895 1.767767 -1.767767 
C 1.29895 -2.236584 0.663008 -2.5 0 -2.5 
C -0.663008 -2.5 -1.29895 -2.236584 -1.767767 -1.767767 
C -2.236584 -1.29895 -2.5 -0.663008 -2.5 0 
C -2.5 0.663008 -2.236584 1.29895 -1.767767 1.767767 
C -1.29895 2.236584 -0.663008 2.5 0 2.5 
z
" id="C9_0_333b7edc6b"/>
    </defs>
    <g clip-path="url(#p1d010cf406)">
     <use style="fill:#1f77b4;" x="667.765714" xlink:href="#C9_0_333b7edc6b" y="259.749724"/>
    </g>
    <g clip-path="url(#p1d010cf406)">
     <use style="fill:#1f77b4;" x="663.520514" xlink:href="#C9_0_333b7edc6b" y="256.304897"/>
    </g>
   </g>
   <g id="PathCollection_29">
    <defs>
     <path d="M 0 2.5 
C 0.663008 2.5 1.29895 2.236584 1.767767 1.767767 
C 2.236584 1.29895 2.5 0.663008 2.5 0 
C 2.5 -0.663008 2.236584 -1.29895 1.767767 -1.767767 
C 1.29895 -2.236584 0.663008 -2.5 0 -2.5 
C -0.663008 -2.5 -1.29895 -2.236584 -1.767767 -1.767767 
C -2.236584 -1.29895 -2.5 -0.663008 -2.5 0 
C -2.5 0.663008 -2.236584 1.29895 -1.767767 1.767767 
C -1.29895 2.236584 -0.663008 2.5 0 2.5 
z
" id="Ca_0_6b98bc346e"/>
    </defs>
    <g clip-path="url(#p1d010cf406)">
     <use style="fill:#1f77b4;" x="695.388571" xlink:href="#Ca_0_6b98bc346e" y="259.539674"/>
    </g>
    <g clip-path="url(#p1d010cf406)">
     <use style="fill:#1f77b4;" x="689.203228" xlink:href="#Ca_0_6b98bc346e" y="259.513057"/>
    </g>
    <g clip-path="url(#p1d010cf406)">
     <use style="fill:#1f77b4;" x="701.560145" xlink:href="#Ca_0_6b98bc346e" y="259.222689"/>
    </g>
    <g clip-path="url(#p1d010cf406)">
     <use style="fill:#ff7f0e;" x="684.339429" xlink:href="#Ca_0_6b98bc346e" y="259.103819"/>
    </g>
    <g clip-path="url(#p1d010cf406)">
     <use style="fill:#1f77b4;" x="706.437714" xlink:href="#Ca_0_6b98bc346e" y="258.70417"/>
    </g>
    <g clip-path="url(#p1d010cf406)">
     <use style="fill:#2ca02c;" x="695.388571" xlink:href="#Ca_0_6b98bc346e" y="250.896404"/>
    </g>
    <g clip-path="url(#p1d010cf406)">
     <use style="fill:#2ca02c;" x="689.606203" xlink:href="#Ca_0_6b98bc346e" y="249.21457"/>
    </g>
    <g clip-path="url(#p1d010cf406)">
     <use style="fill:#2ca02c;" x="695.388571" xlink:href="#Ca_0_6b98bc346e" y="242.166126"/>
    </g>
   </g>
   <g id="legend_3">
    <g id="patch_19">
     <path d="M 613.540625 171.885593 
L 702.2 171.885593 
Q 704.2 171.885593 704.2 169.885593 
L 704.2 114.304343 
Q 704.2 112.304343 702.2 112.304343 
L 613.540625 112.304343 
Q 611.540625 112.304343 611.540625 114.304343 
L 611.540625 169.885593 
Q 611.540625 171.885593 613.540625 171.885593 
z
" style="fill:#ffffff;opacity:0.8;stroke:#cccccc;stroke-linejoin:miter;"/>
    </g>
    <g id="text_45">
     <!-- IMPACT -->
     <g style="fill:#262626;" transform="translate(638.986719 123.462155)scale(0.1 -0.1)">
      <use xlink:href="#ArialMT-73"/>
      <use x="27.783203" xlink:href="#ArialMT-77"/>
      <use x="111.083984" xlink:href="#ArialMT-80"/>
      <use x="177.673828" xlink:href="#ArialMT-65"/>
      <use x="244.373047" xlink:href="#ArialMT-67"/>
      <use x="316.589844" xlink:href="#ArialMT-84"/>
     </g>
    </g>
    <g id="PathCollection_30">
     <g>
      <use style="fill:#1f77b4;stroke:#1f77b4;" x="625.540625" xlink:href="#m0370a8d78f" y="134.982468"/>
     </g>
    </g>
    <g id="text_46">
     <!-- MODERATE -->
     <g style="fill:#262626;" transform="translate(643.540625 137.607468)scale(0.1 -0.1)">
      <use xlink:href="#ArialMT-77"/>
      <use x="83.300781" xlink:href="#ArialMT-79"/>
      <use x="161.083984" xlink:href="#ArialMT-68"/>
      <use x="233.300781" xlink:href="#ArialMT-69"/>
      <use x="300" xlink:href="#ArialMT-82"/>
      <use x="372.216797" xlink:href="#ArialMT-65"/>
      <use x="438.806641" xlink:href="#ArialMT-84"/>
      <use x="499.890625" xlink:href="#ArialMT-69"/>
     </g>
    </g>
    <g id="PathCollection_31">
     <g>
      <use style="fill:#ff7f0e;stroke:#ff7f0e;" x="625.540625" xlink:href="#m4c680bf35e" y="149.12778"/>
     </g>
    </g>
    <g id="text_47">
     <!-- LOW -->
     <g style="fill:#262626;" transform="translate(643.540625 151.75278)scale(0.1 -0.1)">
      <use xlink:href="#ArialMT-76"/>
      <use x="55.615234" xlink:href="#ArialMT-79"/>
      <use x="133.398438" xlink:href="#ArialMT-87"/>
     </g>
    </g>
    <g id="PathCollection_32">
     <g>
      <use style="fill:#2ca02c;stroke:#2ca02c;" x="625.540625" xlink:href="#mfacc9702ad" y="163.273093"/>
     </g>
    </g>
    <g id="text_48">
     <!-- HIGH -->
     <g style="fill:#262626;" transform="translate(643.540625 165.898093)scale(0.1 -0.1)">
      <use xlink:href="#ArialMT-72"/>
      <use x="72.216797" xlink:href="#ArialMT-73"/>
      <use x="100" xlink:href="#ArialMT-71"/>
      <use x="177.783203" xlink:href="#ArialMT-72"/>
     </g>
    </g>
   </g>
  </g>
 </g>
 <defs>
  <clipPath id="pcefdac34f6">
   <rect height="262.589935" width="193.36" x="43.04" y="10.8"/>
  </clipPath>
  <clipPath id="p9f375515b2">
   <rect height="262.589935" width="193.36" x="279.44" y="10.8"/>
  </clipPath>
  <clipPath id="p1d010cf406">
   <rect height="262.589935" width="193.36" x="515.84" y="10.8"/>
  </clipPath>
 </defs>
</svg>
